<?xml version="1.0" encoding="utf-8"?>
<!-- Generator: Adobe Illustrator 18.1.1, SVG Export Plug-In . SVG Version: 6.00 Build 0)  -->
<!DOCTYPE svg PUBLIC "-//W3C//DTD SVG 1.1//EN" "http://www.w3.org/Graphics/SVG/1.1/DTD/svg11.dtd">
<svg version="1.1" id="Layer_1" xmlns="http://www.w3.org/2000/svg" xmlns:xlink="http://www.w3.org/1999/xlink" x="0px" y="0px"
	 width="294.114px" height="90px" viewBox="0 0 294.114 90" enable-background="new 0 0 294.114 90" xml:space="preserve">
<g>
	<g>
		<path fill="#808285" d="M100.812,9.433h1.253v10.165h-1.253V9.433z"/>
		<path fill="#808285" d="M103.531,11.968h1.139v0.897h0.028c0.328-0.698,1.111-1.096,1.851-1.096c2.007,0,2.007,1.509,2.007,2.42
			v5.41h-1.196v-5.268c0-0.583-0.043-1.538-1.125-1.538c-0.641,0-1.509,0.441-1.509,1.538v5.268h-1.196V11.968z"/>
		<path fill="#808285" d="M113.255,14.203c0-0.968-0.256-1.495-1.125-1.495c-0.384,0-1.238,0.1-1.238,1.167
			c0,0.911,0.939,1.082,1.879,1.381c0.911,0.299,1.865,0.626,1.865,2.15c0,1.594-1.04,2.392-2.463,2.392
			c-2.591,0-2.62-1.922-2.62-2.705h1.196c0,0.925,0.242,1.765,1.424,1.765c0.384,0,1.267-0.185,1.267-1.267
			c0-1.025-0.954-1.253-1.865-1.552c-0.925-0.313-1.879-0.598-1.879-2.164c0-1.423,1.111-2.107,2.435-2.107
			c2.221,0,2.321,1.538,2.321,2.435H113.255z"/>
		<path fill="#808285" d="M120.658,19.598h-1.139v-0.897h-0.028c-0.328,0.698-1.11,1.096-1.851,1.096
			c-2.007,0-2.007-1.509-2.007-2.42v-5.41h1.196v5.268c0,0.583,0.042,1.538,1.125,1.538c0.641,0,1.509-0.441,1.509-1.538v-5.268
			h1.196V19.598z"/>
		<path fill="#808285" d="M122.082,11.968h1.196v1.139h0.028c0.342-0.726,0.783-1.338,1.651-1.338c0.242,0,0.413,0.028,0.527,0.085
			v1.167c-0.114-0.014-0.256-0.057-0.641-0.057c-0.598,0-1.566,0.555-1.566,1.808v4.826h-1.196V11.968z"/>
		<path fill="#808285" d="M125.968,14.274c0-1.723,0.74-2.506,2.562-2.506c2.32,0,2.32,1.395,2.32,2.192v4.257
			c0,0.327-0.014,0.612,0.37,0.612c0.157,0,0.228-0.029,0.285-0.071v0.854c-0.1,0.014-0.398,0.071-0.697,0.071
			c-0.441,0-1.04,0-1.082-0.982h-0.029c-0.384,0.684-1.11,1.096-1.836,1.096c-1.423,0-2.078-0.854-2.078-2.221
			c0-1.082,0.456-1.808,1.438-2.107l1.609-0.484c0.883-0.271,0.868-0.526,0.868-1.153c0-0.726-0.427-1.125-1.224-1.125
			c-1.31,0-1.31,1.21-1.31,1.495v0.071H125.968z M129.655,15.441c-0.47,0.47-1.495,0.541-2.036,0.897
			c-0.385,0.242-0.584,0.541-0.584,1.21c0,0.783,0.271,1.31,1.082,1.31c0.797,0,1.538-0.655,1.538-1.452V15.441z"/>
		<path fill="#808285" d="M132.332,11.968h1.139v0.897h0.028c0.328-0.698,1.111-1.096,1.851-1.096c2.007,0,2.007,1.509,2.007,2.42
			v5.41h-1.196v-5.268c0-0.583-0.043-1.538-1.125-1.538c-0.641,0-1.509,0.441-1.509,1.538v5.268h-1.196V11.968z"/>
		<path fill="#808285" d="M142.411,14.288c0-0.74-0.299-1.581-1.21-1.581c-0.74,0-1.495,0.37-1.495,3.161
			c0,0.982,0.014,2.99,1.452,2.99c1.025,0,1.252-1.082,1.252-1.908h1.196c0,1.196-0.598,2.847-2.506,2.847
			c-1.879,0-2.648-1.281-2.648-3.915c0-1.894,0.37-4.114,2.719-4.114c2.093,0,2.435,1.651,2.435,2.52H142.411z"/>
		<path fill="#808285" d="M145.7,15.926c0,1.182,0,2.933,1.466,2.933c1.139,0,1.295-1.182,1.295-1.765h1.196
			c0,0.811-0.47,2.705-2.562,2.705c-1.879,0-2.648-1.281-2.648-3.915c0-1.894,0.37-4.114,2.719-4.114
			c2.334,0,2.548,2.021,2.548,3.673v0.484H145.7z M148.462,14.986v-0.413c0-0.854-0.256-1.865-1.324-1.865
			c-1.252,0-1.395,1.538-1.395,1.993v0.285H148.462z"/>
		<path fill="#808285" d="M154.199,9.433h1.253v10.165h-1.253V9.433z"/>
		<path fill="#808285" d="M156.919,11.968h1.139v0.897h0.028c0.328-0.698,1.111-1.096,1.851-1.096c2.007,0,2.007,1.509,2.007,2.42
			v5.41h-1.196v-5.268c0-0.583-0.043-1.538-1.125-1.538c-0.641,0-1.509,0.441-1.509,1.538v5.268h-1.196V11.968z"/>
		<path fill="#808285" d="M166.642,14.203c0-0.968-0.256-1.495-1.125-1.495c-0.384,0-1.238,0.1-1.238,1.167
			c0,0.911,0.939,1.082,1.879,1.381c0.911,0.299,1.865,0.626,1.865,2.15c0,1.594-1.04,2.392-2.463,2.392
			c-2.591,0-2.62-1.922-2.62-2.705h1.196c0,0.925,0.242,1.765,1.424,1.765c0.384,0,1.267-0.185,1.267-1.267
			c0-1.025-0.954-1.253-1.865-1.552c-0.925-0.313-1.879-0.598-1.879-2.164c0-1.423,1.111-2.107,2.435-2.107
			c2.221,0,2.321,1.538,2.321,2.435H166.642z"/>
		<path fill="#808285" d="M169.376,9.747h1.196v2.221h1.324v0.94h-1.324v4.897c0,0.612,0.156,0.854,0.783,0.854
			c0.271,0,0.398-0.029,0.526-0.043v0.982c-0.156,0.042-0.47,0.085-0.968,0.085c-1.253,0-1.538-0.513-1.538-1.509v-5.267h-1.11
			v-0.94h1.11V9.747z"/>
		<path fill="#808285" d="M172.636,9.433h1.195V10.8h-1.195V9.433z M172.636,11.968h1.195v7.631h-1.195V11.968z"/>
		<path fill="#808285" d="M175.682,9.747h1.196v2.221h1.324v0.94h-1.324v4.897c0,0.612,0.156,0.854,0.783,0.854
			c0.271,0,0.398-0.029,0.526-0.043v0.982c-0.156,0.042-0.47,0.085-0.968,0.085c-1.253,0-1.538-0.513-1.538-1.509v-5.267h-1.11
			v-0.94h1.11V9.747z"/>
		<path fill="#808285" d="M183.897,19.598h-1.139v-0.897h-0.029c-0.327,0.698-1.11,1.096-1.851,1.096
			c-2.007,0-2.007-1.509-2.007-2.42v-5.41h1.195v5.268c0,0.583,0.043,1.538,1.125,1.538c0.641,0,1.509-0.441,1.509-1.538v-5.268
			h1.196V19.598z"/>
		<path fill="#808285" d="M185.677,9.747h1.196v2.221h1.324v0.94h-1.324v4.897c0,0.612,0.156,0.854,0.783,0.854
			c0.271,0,0.398-0.029,0.526-0.043v0.982c-0.156,0.042-0.47,0.085-0.968,0.085c-1.253,0-1.538-0.513-1.538-1.509v-5.267h-1.11
			v-0.94h1.11V9.747z"/>
		<path fill="#808285" d="M189.863,15.926c0,1.182,0,2.933,1.467,2.933c1.139,0,1.295-1.182,1.295-1.765h1.196
			c0,0.811-0.47,2.705-2.562,2.705c-1.879,0-2.648-1.281-2.648-3.915c0-1.894,0.37-4.114,2.72-4.114
			c2.335,0,2.548,2.021,2.548,3.673v0.484H189.863z M192.625,14.986v-0.413c0-0.854-0.256-1.865-1.323-1.865
			c-1.253,0-1.396,1.538-1.396,1.993v0.285H192.625z"/>
		<path fill="#808285" d="M198.675,12.908h-1.11v-0.94h1.11v-0.897c0-1.153,0.498-1.751,1.651-1.751h0.869v1.025h-0.556
			c-0.513,0-0.769,0.2-0.769,0.726v0.897h1.31v0.94h-1.31v6.691h-1.196V12.908z"/>
		<path fill="#808285" d="M204.242,11.768c2.207,0,2.748,1.865,2.748,4.015c0,2.15-0.556,4.015-2.748,4.015
			c-2.206,0-2.747-1.865-2.747-4.015C201.495,13.634,202.036,11.768,204.242,11.768z M205.737,15.783
			c0-1.651-0.228-3.075-1.523-3.075c-1.21,0-1.466,1.424-1.466,3.075s0.241,3.075,1.466,3.075
			C205.481,18.858,205.737,17.434,205.737,15.783z"/>
		<path fill="#808285" d="M208.045,11.968h1.195v1.139h0.029c0.341-0.726,0.782-1.338,1.651-1.338c0.241,0,0.412,0.028,0.526,0.085
			v1.167c-0.114-0.014-0.256-0.057-0.641-0.057c-0.598,0-1.566,0.555-1.566,1.808v4.826h-1.195V11.968z"/>
		<path fill="#808285" d="M221.426,19.598h-1.253v-4.897h-3.488v4.897h-1.252V9.433h1.252v4.157h3.488V9.433h1.253V19.598z"/>
		<path fill="#808285" d="M222.964,9.433h1.195V10.8h-1.195V9.433z M222.964,11.968h1.195v7.631h-1.195V11.968z"/>
		<path fill="#808285" d="M230.68,19.115c0,2.278-1.067,3.104-2.591,3.104c-0.47,0-2.321,0-2.506-1.908h1.195
			c0.058,0.697,0.599,0.968,1.225,0.968c1.538,0,1.48-1.182,1.48-1.708v-0.997h-0.028c-0.271,0.641-0.968,1.025-1.723,1.025
			c-2.221,0-2.363-2.805-2.363-3.815c0-2.064,0.556-4.015,2.491-4.015c0.841,0,1.495,0.555,1.651,1.167h0.029v-0.968h1.139V19.115z
			 M226.623,15.783c0,1.239,0.186,2.791,1.381,2.791c1.31,0,1.552-1.225,1.552-2.791c0-1.48-0.242-2.99-1.537-2.99
			C226.922,12.793,226.623,13.961,226.623,15.783z"/>
		<path fill="#808285" d="M232.104,9.433h1.195v3.403h0.029c0.312-0.626,1.152-1.068,1.836-1.068c1.979,0,1.965,1.509,1.965,2.42
			v5.41h-1.196v-5.268c0-0.583-0.042-1.538-1.124-1.538c-0.641,0-1.51,0.441-1.51,1.538v5.268h-1.195V9.433z"/>
		<path fill="#808285" d="M237.913,11.968h1.253l1.224,6.236h0.029l1.295-6.236h1.409l1.268,6.236h0.028l1.182-6.236h1.253
			l-1.809,7.631h-1.31l-1.338-6.235h-0.028l-1.281,6.235h-1.396L237.913,11.968z"/>
		<path fill="#808285" d="M247.451,14.274c0-1.723,0.74-2.506,2.562-2.506c2.321,0,2.321,1.395,2.321,2.192v4.257
			c0,0.327-0.015,0.612,0.37,0.612c0.156,0,0.228-0.029,0.284-0.071v0.854c-0.1,0.014-0.398,0.071-0.697,0.071
			c-0.441,0-1.039,0-1.082-0.982h-0.028c-0.385,0.684-1.11,1.096-1.837,1.096c-1.424,0-2.078-0.854-2.078-2.221
			c0-1.082,0.455-1.808,1.438-2.107l1.608-0.484c0.883-0.271,0.869-0.526,0.869-1.153c0-0.726-0.428-1.125-1.225-1.125
			c-1.31,0-1.31,1.21-1.31,1.495v0.071H247.451z M251.138,15.441c-0.47,0.47-1.495,0.541-2.036,0.897
			c-0.384,0.242-0.583,0.541-0.583,1.21c0,0.783,0.271,1.31,1.082,1.31c0.797,0,1.537-0.655,1.537-1.452V15.441z"/>
		<path fill="#808285" d="M253.174,11.968h1.31l1.509,6.122h0.028l1.339-6.122h1.31l-2.207,8.144
			c-0.299,1.053-0.598,1.993-2.035,1.993c-0.47,0-0.655-0.028-0.869-0.042v-0.939c0.171,0.028,0.399,0.042,0.698,0.042
			c0.555,0,0.783-0.327,0.939-0.74l0.228-0.669L253.174,11.968z"/>
		<path fill="#808285" d="M267.085,12.067c0-1.067-0.385-1.808-1.58-1.808c-1.068,0-1.681,0.57-1.681,1.652
			c0,2.861,4.798,1.153,4.798,4.869c0,2.349-1.723,3.018-3.16,3.018c-2.378,0-3.075-1.224-3.075-3.388h1.253
			c0,1.139,0.085,2.363,1.907,2.363c0.997,0,1.766-0.712,1.766-1.794c0-2.875-4.798-1.21-4.798-4.94
			c0-0.939,0.398-2.805,2.976-2.805c1.95,0,2.805,0.954,2.848,2.833H267.085z"/>
		<path fill="#808285" d="M269.518,14.274c0-1.723,0.74-2.506,2.562-2.506c2.321,0,2.321,1.395,2.321,2.192v4.257
			c0,0.327-0.015,0.612,0.37,0.612c0.156,0,0.228-0.029,0.284-0.071v0.854c-0.1,0.014-0.398,0.071-0.697,0.071
			c-0.441,0-1.039,0-1.082-0.982h-0.028c-0.385,0.684-1.11,1.096-1.837,1.096c-1.424,0-2.078-0.854-2.078-2.221
			c0-1.082,0.455-1.808,1.438-2.107l1.608-0.484c0.883-0.271,0.869-0.526,0.869-1.153c0-0.726-0.428-1.125-1.225-1.125
			c-1.31,0-1.31,1.21-1.31,1.495v0.071H269.518z M273.206,15.441c-0.47,0.47-1.495,0.541-2.036,0.897
			c-0.384,0.242-0.583,0.541-0.583,1.21c0,0.783,0.271,1.31,1.082,1.31c0.797,0,1.537-0.655,1.537-1.452V15.441z"/>
		<path fill="#808285" d="M276.238,12.908h-1.11v-0.94h1.11v-0.897c0-1.153,0.498-1.751,1.651-1.751h0.869v1.025h-0.556
			c-0.513,0-0.769,0.2-0.769,0.726v0.897h1.31v0.94h-1.31v6.691h-1.196V12.908z"/>
		<path fill="#808285" d="M280.139,15.926c0,1.182,0,2.933,1.467,2.933c1.139,0,1.295-1.182,1.295-1.765h1.196
			c0,0.811-0.47,2.705-2.562,2.705c-1.879,0-2.648-1.281-2.648-3.915c0-1.894,0.37-4.114,2.72-4.114
			c2.335,0,2.548,2.021,2.548,3.673v0.484H280.139z M282.901,14.986v-0.413c0-0.854-0.256-1.865-1.323-1.865
			c-1.253,0-1.396,1.538-1.396,1.993v0.285H282.901z"/>
		<path fill="#808285" d="M285.393,9.747h1.196v2.221h1.324v0.94h-1.324v4.897c0,0.612,0.156,0.854,0.783,0.854
			c0.271,0,0.398-0.029,0.526-0.043v0.982c-0.156,0.042-0.47,0.085-0.968,0.085c-1.253,0-1.538-0.513-1.538-1.509v-5.267h-1.11
			v-0.94h1.11V9.747z"/>
		<path fill="#808285" d="M288.226,11.968h1.31l1.509,6.122h0.028l1.339-6.122h1.31l-2.207,8.144
			c-0.299,1.053-0.598,1.993-2.035,1.993c-0.47,0-0.655-0.028-0.869-0.042v-0.939c0.171,0.028,0.399,0.042,0.698,0.042
			c0.555,0,0.783-0.327,0.939-0.74l0.228-0.669L288.226,11.968z"/>
		<path fill="#808285" d="M106.805,34.725h-1.253v-4.897h-3.488v4.897h-1.253V24.56h1.253v4.157h3.488V24.56h1.253V34.725z"/>
		<path fill="#808285" d="M108.342,24.56h1.196v1.367h-1.196V24.56z M108.342,27.094h1.196v7.631h-1.196V27.094z"/>
		<path fill="#808285" d="M116.059,34.241c0,2.278-1.068,3.104-2.591,3.104c-0.47,0-2.32,0-2.505-1.908h1.196
			c0.057,0.697,0.598,0.968,1.224,0.968c1.538,0,1.481-1.182,1.481-1.708V33.7h-0.029c-0.271,0.641-0.968,1.025-1.723,1.025
			c-2.221,0-2.363-2.805-2.363-3.815c0-2.064,0.556-4.015,2.492-4.015c0.84,0,1.495,0.555,1.651,1.167h0.028v-0.968h1.139V34.241z
			 M112.002,30.91c0,1.239,0.185,2.791,1.381,2.791c1.31,0,1.552-1.225,1.552-2.791c0-1.48-0.242-2.99-1.537-2.99
			C112.3,27.92,112.002,29.087,112.002,30.91z"/>
		<path fill="#808285" d="M117.483,24.56h1.196v3.403h0.028c0.313-0.626,1.153-1.068,1.836-1.068c1.979,0,1.965,1.509,1.965,2.42
			v5.41h-1.196v-5.268c0-0.583-0.043-1.538-1.125-1.538c-0.641,0-1.509,0.441-1.509,1.538v5.268h-1.196V24.56z"/>
		<path fill="#808285" d="M123.292,27.094h1.252l1.225,6.236h0.028l1.295-6.236h1.41l1.267,6.236h0.028l1.182-6.236h1.253
			l-1.808,7.631h-1.31l-1.338-6.235h-0.029l-1.281,6.235h-1.395L123.292,27.094z"/>
		<path fill="#808285" d="M132.83,29.401c0-1.723,0.74-2.506,2.562-2.506c2.32,0,2.32,1.395,2.32,2.192v4.257
			c0,0.327-0.014,0.612,0.37,0.612c0.157,0,0.228-0.029,0.285-0.071v0.854c-0.1,0.014-0.398,0.071-0.697,0.071
			c-0.441,0-1.04,0-1.082-0.982h-0.028c-0.385,0.684-1.111,1.096-1.837,1.096c-1.423,0-2.078-0.854-2.078-2.221
			c0-1.082,0.456-1.808,1.438-2.107l1.609-0.484c0.883-0.271,0.869-0.526,0.869-1.153c0-0.726-0.427-1.125-1.225-1.125
			c-1.31,0-1.31,1.21-1.31,1.495v0.071H132.83z M136.517,30.568c-0.47,0.47-1.495,0.541-2.036,0.897
			c-0.385,0.242-0.584,0.541-0.584,1.21c0,0.783,0.271,1.31,1.082,1.31c0.797,0,1.538-0.655,1.538-1.452V30.568z"/>
		<path fill="#808285" d="M138.553,27.094h1.31l1.509,6.122h0.029l1.338-6.122h1.31l-2.207,8.144
			c-0.299,1.053-0.598,1.993-2.036,1.993c-0.47,0-0.655-0.029-0.868-0.043v-0.939c0.171,0.028,0.398,0.042,0.697,0.042
			c0.556,0,0.783-0.327,0.94-0.74l0.228-0.669L138.553,27.094z"/>
		<path fill="#808285" d="M148.148,24.56h1.253v9.055h4.128v1.11h-5.381V24.56z"/>
		<path fill="#808285" d="M156.661,26.895c2.207,0,2.748,1.865,2.748,4.015c0,2.15-0.555,4.015-2.748,4.015
			c-2.207,0-2.748-1.865-2.748-4.015C153.914,28.76,154.454,26.895,156.661,26.895z M158.156,30.91c0-1.651-0.228-3.075-1.523-3.075
			c-1.21,0-1.466,1.424-1.466,3.075s0.242,3.075,1.466,3.075C157.9,33.985,158.156,32.561,158.156,30.91z"/>
		<path fill="#808285" d="M163.736,29.329c0-0.968-0.256-1.495-1.125-1.495c-0.384,0-1.238,0.1-1.238,1.167
			c0,0.911,0.939,1.082,1.879,1.381c0.911,0.299,1.865,0.626,1.865,2.15c0,1.594-1.04,2.392-2.463,2.392
			c-2.591,0-2.62-1.922-2.62-2.705h1.196c0,0.926,0.242,1.766,1.424,1.766c0.384,0,1.267-0.185,1.267-1.267
			c0-1.025-0.954-1.253-1.865-1.552c-0.925-0.313-1.879-0.598-1.879-2.164c0-1.423,1.111-2.107,2.435-2.107
			c2.221,0,2.321,1.538,2.321,2.435H163.736z"/>
		<path fill="#808285" d="M169.389,29.329c0-0.968-0.256-1.495-1.125-1.495c-0.384,0-1.238,0.1-1.238,1.167
			c0,0.911,0.939,1.082,1.879,1.381c0.911,0.299,1.865,0.626,1.865,2.15c0,1.594-1.039,2.392-2.462,2.392
			c-2.591,0-2.62-1.922-2.62-2.705h1.196c0,0.926,0.242,1.766,1.424,1.766c0.384,0,1.267-0.185,1.267-1.267
			c0-1.025-0.954-1.253-1.865-1.552c-0.925-0.313-1.879-0.598-1.879-2.164c0-1.423,1.111-2.107,2.435-2.107
			c2.221,0,2.321,1.538,2.321,2.435H169.389z"/>
		<path fill="#808285" d="M175.212,24.56h2.719c3.146,0,3.56,2.278,3.56,5.083c0,2.562-0.641,5.083-3.432,5.083h-2.847V24.56z
			 M176.465,33.7h1.31c2.164,0,2.405-2.221,2.405-4.043c0-1.964-0.128-4.071-2.405-4.071h-1.31V33.7z"/>
		<path fill="#808285" d="M182.629,29.401c0-1.723,0.74-2.506,2.562-2.506c2.321,0,2.321,1.395,2.321,2.192v4.257
			c0,0.327-0.015,0.612,0.37,0.612c0.156,0,0.228-0.029,0.284-0.071v0.854c-0.1,0.014-0.398,0.071-0.697,0.071
			c-0.441,0-1.039,0-1.082-0.982h-0.028c-0.385,0.684-1.11,1.096-1.837,1.096c-1.424,0-2.078-0.854-2.078-2.221
			c0-1.082,0.455-1.808,1.438-2.107l1.608-0.484c0.883-0.271,0.869-0.526,0.869-1.153c0-0.726-0.428-1.125-1.225-1.125
			c-1.31,0-1.31,1.21-1.31,1.495v0.071H182.629z M186.316,30.568c-0.47,0.47-1.495,0.541-2.036,0.897
			c-0.384,0.242-0.583,0.541-0.583,1.21c0,0.783,0.271,1.31,1.082,1.31c0.797,0,1.537-0.655,1.537-1.452V30.568z"/>
		<path fill="#808285" d="M189.491,24.873h1.196v2.221h1.324v0.94h-1.324v4.897c0,0.612,0.156,0.854,0.783,0.854
			c0.271,0,0.398-0.029,0.526-0.043v0.982c-0.156,0.042-0.47,0.085-0.968,0.085c-1.253,0-1.538-0.513-1.538-1.509v-5.267h-1.11
			v-0.94h1.11V24.873z"/>
		<path fill="#808285" d="M192.495,29.401c0-1.723,0.74-2.506,2.562-2.506c2.321,0,2.321,1.395,2.321,2.192v4.257
			c0,0.327-0.015,0.612,0.37,0.612c0.156,0,0.228-0.029,0.284-0.071v0.854c-0.1,0.014-0.398,0.071-0.697,0.071
			c-0.441,0-1.039,0-1.082-0.982h-0.028c-0.385,0.684-1.11,1.096-1.837,1.096c-1.424,0-2.078-0.854-2.078-2.221
			c0-1.082,0.455-1.808,1.438-2.107l1.608-0.484c0.883-0.271,0.869-0.526,0.869-1.153c0-0.726-0.428-1.125-1.225-1.125
			c-1.31,0-1.31,1.21-1.31,1.495v0.071H192.495z M196.182,30.568c-0.47,0.47-1.495,0.541-2.036,0.897
			c-0.384,0.242-0.583,0.541-0.583,1.21c0,0.783,0.271,1.31,1.082,1.31c0.797,0,1.537-0.655,1.537-1.452V30.568z"/>
		<path fill="#808285" d="M202.177,24.56h1.252v10.165h-1.252V24.56z"/>
		<path fill="#808285" d="M204.896,27.094h1.139v0.897h0.028c0.327-0.698,1.11-1.096,1.851-1.096c2.008,0,2.008,1.509,2.008,2.42
			v5.41h-1.196v-5.268c0-0.583-0.042-1.538-1.124-1.538c-0.641,0-1.51,0.441-1.51,1.538v5.268h-1.195V27.094z"/>
		<path fill="#808285" d="M214.62,29.329c0-0.968-0.257-1.495-1.125-1.495c-0.385,0-1.238,0.1-1.238,1.167
			c0,0.911,0.939,1.082,1.879,1.381c0.911,0.299,1.865,0.626,1.865,2.15c0,1.594-1.039,2.392-2.463,2.392
			c-2.591,0-2.62-1.922-2.62-2.705h1.196c0,0.926,0.242,1.766,1.424,1.766c0.384,0,1.267-0.185,1.267-1.267
			c0-1.025-0.953-1.253-1.864-1.552c-0.926-0.313-1.88-0.598-1.88-2.164c0-1.423,1.11-2.107,2.435-2.107
			c2.221,0,2.32,1.538,2.32,2.435H214.62z"/>
		<path fill="#808285" d="M217.352,24.873h1.196v2.221h1.324v0.94h-1.324v4.897c0,0.612,0.156,0.854,0.783,0.854
			c0.271,0,0.398-0.029,0.526-0.043v0.982c-0.156,0.042-0.47,0.085-0.968,0.085c-1.253,0-1.538-0.513-1.538-1.509v-5.267h-1.11
			v-0.94h1.11V24.873z"/>
		<path fill="#808285" d="M220.614,24.56h1.195v1.367h-1.195V24.56z M220.614,27.094h1.195v7.631h-1.195V27.094z"/>
		<path fill="#808285" d="M223.66,24.873h1.196v2.221h1.324v0.94h-1.324v4.897c0,0.612,0.156,0.854,0.783,0.854
			c0.271,0,0.398-0.029,0.526-0.043v0.982c-0.156,0.042-0.47,0.085-0.968,0.085c-1.253,0-1.538-0.513-1.538-1.509v-5.267h-1.11
			v-0.94h1.11V24.873z"/>
		<path fill="#808285" d="M231.875,34.725h-1.139v-0.897h-0.029c-0.327,0.698-1.11,1.096-1.851,1.096
			c-2.007,0-2.007-1.509-2.007-2.42v-5.41h1.195v5.268c0,0.583,0.043,1.538,1.125,1.538c0.641,0,1.509-0.441,1.509-1.538v-5.268
			h1.196V34.725z"/>
		<path fill="#808285" d="M233.654,24.873h1.196v2.221h1.324v0.94h-1.324v4.897c0,0.612,0.156,0.854,0.783,0.854
			c0.271,0,0.398-0.029,0.526-0.043v0.982c-0.156,0.042-0.47,0.085-0.968,0.085c-1.253,0-1.538-0.513-1.538-1.509v-5.267h-1.11
			v-0.94h1.11V24.873z"/>
		<path fill="#808285" d="M237.84,31.052c0,1.182,0,2.933,1.467,2.933c1.139,0,1.295-1.182,1.295-1.766h1.196
			c0,0.812-0.47,2.705-2.562,2.705c-1.879,0-2.648-1.281-2.648-3.915c0-1.894,0.37-4.114,2.72-4.114
			c2.335,0,2.548,2.021,2.548,3.673v0.484H237.84z M240.602,30.112V29.7c0-0.854-0.256-1.865-1.323-1.865
			c-1.253,0-1.396,1.538-1.396,1.993v0.285H240.602z"/>
	</g>
	<g>
		<g>
			<rect x="39.167" y="0.842" fill="#FFCD33" width="8.89" height="89.123"/>
			<path d="M61.515,47.016h11.189v33.806h13.774v9.143H61.515V47.016z"/>
			<path d="M78.742,13.234v-1.023c0-2.586-1.022-4.631-3.187-4.631c-2.406,0-3.489,1.864-3.489,3.79
				c0,8.481,18.287,4.33,18.287,20.03c0,9.143-5.353,13.234-15.219,13.234c-9.263,0-14.437-3.188-14.437-12.091v-1.504h10.828v1.022
				c0,3.67,1.504,4.993,3.669,4.993c2.346,0,3.61-1.804,3.61-4.151c0-8.481-17.565-4.27-17.565-19.49C61.238,4.692,65.87,0,75.314,0
				C85.119,0,89.21,4.031,89.21,13.234H78.742z"/>
			<path d="M47.077,0.842v15.76H40.22V0.842H29.031v39.691v3.258v46.174H40.22V72.28h6.857v17.685h11.189V43.791v-3.258V0.842
				H47.077z M47.077,43.791v18.984H40.22V43.791v-3.258V26.106h6.857v14.427V43.791z"/>
			<path d="M89.361,47.016h16.241c12.932,0,13.595,10.225,13.595,21.474s-0.663,21.475-13.595,21.475H89.361V47.016z M100.55,81.905
				h2.225c4.331,0,4.873-1.804,4.873-13.415c0-11.609-0.542-13.414-4.873-13.414h-2.225V81.905z"/>
			<path d="M121.929,47.016h11.187v42.949h-11.187V47.016z"/>
		</g>
		<path d="M0,0.784h11.187v42.949H0V0.784z"/>
		<path d="M14.414,0.784h11.187v42.949H14.414V0.784z"/>
	</g>
</g>
</svg>
