<?xml version="1.0" encoding="utf-8"?>
<!-- Generator: Adobe Illustrator 21.1.0, SVG Export Plug-In . SVG Version: 6.00 Build 0)  -->
<!DOCTYPE svg PUBLIC "-//W3C//DTD SVG 1.0//EN" "http://www.w3.org/TR/2001/REC-SVG-20010904/DTD/svg10.dtd">
<svg version="1.0" xmlns="http://www.w3.org/2000/svg" xmlns:xlink="http://www.w3.org/1999/xlink" x="0px" y="0px"
	 viewBox="0 0 72 47" style="enable-background:new 0 0 72 47;" xml:space="preserve">
<style type="text/css">
	.st0{fill:url(#SVGID_1_);}
	.st1{fill:url(#SVGID_2_);}
	.st2{fill:url(#SVGID_3_);}
	.st3{fill:url(#SVGID_4_);}
	.st4{fill:url(#SVGID_5_);}
	.st5{fill:url(#SVGID_6_);}
	.st6{fill:url(#SVGID_7_);}
	.st7{fill:url(#SVGID_8_);}
	.st8{fill:url(#SVGID_9_);}
	.st9{fill:url(#SVGID_10_);}
	.st10{fill:url(#SVGID_11_);}
	.st11{fill:url(#SVGID_12_);}
	.st12{fill:url(#SVGID_13_);}
	.st13{fill:url(#SVGID_14_);}
	.st14{fill:url(#SVGID_15_);}
	.st15{fill:url(#SVGID_16_);}
	.st16{fill:url(#SVGID_17_);}
	.st17{fill:url(#SVGID_18_);}
	.st18{fill:url(#SVGID_19_);}
	.st19{fill:url(#SVGID_20_);}
	.st20{fill:url(#SVGID_21_);}
	.st21{fill:url(#SVGID_22_);}
	.st22{fill:url(#SVGID_23_);}
	.st23{fill:url(#SVGID_24_);}
	.st24{fill:url(#SVGID_25_);}
	.st25{fill:url(#SVGID_26_);}
	.st26{fill:url(#SVGID_27_);}
	.st27{fill:url(#SVGID_28_);}
	.st28{fill:url(#SVGID_29_);}
	.st29{fill:url(#SVGID_30_);}
	.st30{fill:url(#SVGID_31_);}
	.st31{fill:url(#SVGID_32_);}
	.st32{fill:url(#SVGID_33_);}
	.st33{fill:url(#SVGID_34_);}
	.st34{fill:url(#SVGID_35_);}
	.st35{fill:url(#SVGID_36_);}
	.st36{fill:url(#SVGID_37_);}
	.st37{fill:url(#SVGID_38_);}
	.st38{fill:url(#SVGID_39_);}
	.st39{fill:url(#SVGID_40_);}
	.st40{fill:url(#SVGID_41_);}
	.st41{fill:url(#SVGID_42_);}
	.st42{fill:url(#SVGID_43_);}
	.st43{fill:url(#SVGID_44_);}
	.st44{fill:url(#SVGID_45_);}
	.st45{fill:url(#SVGID_46_);}
	.st46{fill:url(#SVGID_47_);}
	.st47{fill:url(#SVGID_48_);}
	.st48{fill:url(#SVGID_49_);}
	.st49{fill:url(#SVGID_50_);}
	.st50{fill:url(#SVGID_51_);}
	.st51{fill:url(#SVGID_52_);}
	.st52{fill:url(#SVGID_53_);}
	.st53{fill:url(#SVGID_54_);}
	.st54{fill:url(#SVGID_55_);}
	.st55{fill:url(#SVGID_56_);}
	.st56{fill:url(#SVGID_57_);}
	.st57{fill:url(#SVGID_58_);}
	.st58{fill:url(#SVGID_59_);}
	.st59{fill:url(#SVGID_60_);}
	.st60{fill:url(#SVGID_61_);}
	.st61{fill:url(#SVGID_62_);}
	.st62{fill:url(#SVGID_63_);}
	.st63{fill:url(#SVGID_64_);}
</style>
<g id="Layer_1">
</g>
<g id="Layer_2">
	<g>
		<linearGradient id="SVGID_1_" gradientUnits="userSpaceOnUse" x1="35.9656" y1="46.9585" x2="35.9656" y2="4.512653e-02">
			<stop  offset="0" style="stop-color:#AC8B42"/>
			<stop  offset="0.5" style="stop-color:#D5C99C"/>
			<stop  offset="1" style="stop-color:#AC8B42"/>
		</linearGradient>
		<polygon class="st0" points="0,47 0,0 54.7,0 71.9,19.7 63.4,47 		"/>
		<g>
			<g>
				<g>
					<g>
						<path d="M4,12.2h13V17H13V36H8V17H4V12.2z"/>
						<path d="M21.9,28v1.7c0,1.4,0.4,2.6,2,2.6c1.2,0,1.7-1.2,1.7-2.4c0-2-1.5-2.8-2.8-3.7c-1.5-1-2.9-1.9-3.8-3.1
							c-0.9-1.2-1.5-2.7-1.5-4.8c0-4.5,2.4-6.8,6.3-6.8c4.4,0,6.6,3.2,6.4,7.7h-4.6c-0.1-1.4,0-3.3-1.7-3.4c-1-0.1-1.6,0.5-1.7,1.6
							c-0.1,1.4,0.5,2.2,1.5,2.9c1.9,1.3,3.5,2.2,4.7,3.4c1.2,1.2,1.9,2.8,1.9,5.7c0,4.6-2.3,7.1-6.5,7.1c-4.6,0-6.5-2.9-6.5-6V28
							H21.9z"/>
						<path d="M32.9,36V12.2h6c1.9,0,4.7,0.2,6.1,2c1.2,1.5,1.4,3.2,1.4,5.2c0,2.6-0.5,5.5-2.8,6.6c-1.7,1-3.8,0.7-5.7,0.8V36H32.9z
							 M37.9,22.4c0.9,0,2,0.1,2.8-0.6c0.5-0.6,0.6-1.6,0.6-2.4c0-0.9-0.1-2.3-0.9-2.8c-0.5-0.2-1.2-0.2-2-0.2h-0.5V22.4z"/>
						<path d="M55.7,13.6h4.7L58.9,22h6.8l-1,5.2h-6.8L56.2,36h-4.7l1.7-8.7h-6.8l1-5.2h6.8L55.7,13.6z"/>
					</g>
				</g>
			</g>
		</g>
	</g>
</g>
</svg>
