<?xml version="1.0" encoding="utf-8"?>
<!-- Generator: Adobe Illustrator 21.1.0, SVG Export Plug-In . SVG Version: 6.00 Build 0)  -->
<!DOCTYPE svg PUBLIC "-//W3C//DTD SVG 1.0//EN" "http://www.w3.org/TR/2001/REC-SVG-20010904/DTD/svg10.dtd">
<svg version="1.0" xmlns="http://www.w3.org/2000/svg" xmlns:xlink="http://www.w3.org/1999/xlink" x="0px" y="0px"
	 viewBox="0 0 36 23.5" style="enable-background:new 0 0 36 23.5;" xml:space="preserve">
<style type="text/css">
	.st0{fill:url(#SVGID_1_);}
	.st1{fill:url(#SVGID_2_);}
	.st2{fill:url(#SVGID_3_);}
	.st3{fill:url(#SVGID_4_);}
	.st4{fill:url(#SVGID_5_);}
	.st5{fill:url(#SVGID_6_);}
	.st6{fill:url(#SVGID_7_);}
	.st7{fill:url(#SVGID_8_);}
	.st8{fill:url(#SVGID_9_);}
	.st9{fill:url(#SVGID_10_);}
	.st10{fill:url(#SVGID_11_);}
	.st11{fill:url(#SVGID_12_);}
	.st12{fill:url(#SVGID_13_);}
	.st13{fill:url(#SVGID_14_);}
	.st14{fill:url(#SVGID_15_);}
	.st15{fill:url(#SVGID_16_);}
	.st16{fill:url(#SVGID_17_);}
	.st17{fill:url(#SVGID_18_);}
	.st18{fill:url(#SVGID_19_);}
	.st19{fill:url(#SVGID_20_);}
	.st20{fill:url(#SVGID_21_);}
	.st21{fill:url(#SVGID_22_);}
	.st22{fill:url(#SVGID_23_);}
	.st23{fill:url(#SVGID_24_);}
	.st24{fill:url(#SVGID_25_);}
	.st25{fill:url(#SVGID_26_);}
	.st26{fill:url(#SVGID_27_);}
	.st27{fill:url(#SVGID_28_);}
	.st28{fill:url(#SVGID_29_);}
	.st29{fill:url(#SVGID_30_);}
	.st30{fill:url(#SVGID_31_);}
	.st31{fill:url(#SVGID_32_);}
	.st32{fill:url(#SVGID_33_);}
	.st33{fill:url(#SVGID_34_);}
	.st34{fill:url(#SVGID_35_);}
	.st35{fill:url(#SVGID_36_);}
	.st36{fill:url(#SVGID_37_);}
	.st37{fill:url(#SVGID_38_);}
	.st38{fill:url(#SVGID_39_);}
	.st39{fill:url(#SVGID_40_);}
	.st40{fill:url(#SVGID_41_);}
	.st41{fill:url(#SVGID_42_);}
	.st42{fill:url(#SVGID_43_);}
	.st43{fill:url(#SVGID_44_);}
	.st44{fill:url(#SVGID_45_);}
	.st45{fill:url(#SVGID_46_);}
	.st46{fill:url(#SVGID_47_);}
	.st47{fill:url(#SVGID_48_);}
	.st48{fill:url(#SVGID_49_);}
	.st49{fill:url(#SVGID_50_);}
	.st50{fill:url(#SVGID_51_);}
	.st51{fill:url(#SVGID_52_);}
	.st52{fill:url(#SVGID_53_);}
	.st53{fill:url(#SVGID_54_);}
	.st54{fill:url(#SVGID_55_);}
	.st55{fill:url(#SVGID_56_);}
	.st56{fill:url(#SVGID_57_);}
	.st57{fill:url(#SVGID_58_);}
	.st58{fill:url(#SVGID_59_);}
	.st59{fill:url(#SVGID_60_);}
	.st60{fill:url(#SVGID_61_);}
	.st61{fill:url(#SVGID_62_);}
	.st62{fill:url(#SVGID_63_);}
	.st63{fill:url(#SVGID_64_);}
</style>
<g id="Layer_1">
</g>
<g id="Layer_2">
	<g>
		<linearGradient id="SVGID_1_" gradientUnits="userSpaceOnUse" x1="17.9088" y1="23.4873" x2="17.9088" y2="2.281326e-02">
			<stop  offset="0" style="stop-color:#AC8B42"/>
			<stop  offset="0.5" style="stop-color:#D5C99C"/>
			<stop  offset="1" style="stop-color:#AC8B42"/>
		</linearGradient>
		<polygon class="st0" points="0,23.5 0,0 27.2,0 35.8,9.9 31.5,23.5 		"/>
		<g>
			<g>
				<g>
					<g>
						<path d="M1.9,6.1h6.5v2.4h-2V18H3.8V8.5h-2V6.1z"/>
						<path d="M10.8,14v0.8c0,0.7,0.2,1.3,1,1.3c0.6,0,0.8-0.6,0.8-1.2c0-1-0.7-1.4-1.4-1.8c-0.8-0.5-1.4-1-1.9-1.6
							C8.9,11,8.6,10.2,8.6,9.2c0-2.2,1.2-3.4,3.2-3.4c2.2,0,3.3,1.6,3.2,3.9h-2.3c0-0.7,0-1.7-0.8-1.7c-0.5,0-0.8,0.3-0.9,0.8
							c-0.1,0.7,0.3,1.1,0.8,1.5c0.9,0.7,1.8,1.1,2.3,1.7c0.6,0.6,0.9,1.4,0.9,2.8c0,2.3-1.1,3.6-3.2,3.6c-2.3,0-3.3-1.4-3.3-3V14
							H10.8z"/>
						<path d="M16.3,18V6.1h3c1,0,2.4,0.1,3.1,1c0.6,0.7,0.7,1.6,0.7,2.6c0,1.3-0.3,2.7-1.4,3.3c-0.9,0.5-1.9,0.3-2.8,0.4V18H16.3z
							 M18.8,11.2c0.5,0,1,0,1.4-0.3c0.3-0.3,0.3-0.8,0.3-1.2c0-0.5,0-1.2-0.5-1.4c-0.2-0.1-0.6-0.1-1-0.1h-0.3V11.2z"/>
						<path d="M27.7,6.8h2.4L29.3,11h3.4l-0.5,2.6h-3.4L27.9,18h-2.4l0.8-4.4H23l0.5-2.6h3.4L27.7,6.8z"/>
					</g>
				</g>
			</g>
		</g>
	</g>
</g>
</svg>
