<?xml version="1.0" encoding="utf-8"?>
<!-- Generator: Adobe Illustrator 21.1.0, SVG Export Plug-In . SVG Version: 6.00 Build 0)  -->
<!DOCTYPE svg PUBLIC "-//W3C//DTD SVG 1.0//EN" "http://www.w3.org/TR/2001/REC-SVG-20010904/DTD/svg10.dtd">
<svg version="1.0" xmlns="http://www.w3.org/2000/svg" xmlns:xlink="http://www.w3.org/1999/xlink" x="0px" y="0px"
	 viewBox="0 0 25 16.3" style="enable-background:new 0 0 25 16.3;" xml:space="preserve">
<style type="text/css">
	.st0{fill:url(#SVGID_1_);}
	.st1{fill:url(#SVGID_2_);}
	.st2{fill:url(#SVGID_3_);}
	.st3{fill:url(#SVGID_4_);}
	.st4{fill:url(#SVGID_5_);}
	.st5{fill:url(#SVGID_6_);}
	.st6{fill:url(#SVGID_7_);}
	.st7{fill:url(#SVGID_8_);}
	.st8{fill:url(#SVGID_9_);}
	.st9{fill:url(#SVGID_10_);}
	.st10{fill:url(#SVGID_11_);}
	.st11{fill:url(#SVGID_12_);}
	.st12{fill:url(#SVGID_13_);}
	.st13{fill:url(#SVGID_14_);}
	.st14{fill:url(#SVGID_15_);}
	.st15{fill:url(#SVGID_16_);}
	.st16{fill:url(#SVGID_17_);}
	.st17{fill:url(#SVGID_18_);}
	.st18{fill:url(#SVGID_19_);}
	.st19{fill:url(#SVGID_20_);}
	.st20{fill:url(#SVGID_21_);}
	.st21{fill:url(#SVGID_22_);}
	.st22{fill:url(#SVGID_23_);}
	.st23{fill:url(#SVGID_24_);}
	.st24{fill:url(#SVGID_25_);}
	.st25{fill:url(#SVGID_26_);}
	.st26{fill:url(#SVGID_27_);}
	.st27{fill:url(#SVGID_28_);}
	.st28{fill:url(#SVGID_29_);}
	.st29{fill:url(#SVGID_30_);}
	.st30{fill:url(#SVGID_31_);}
	.st31{fill:url(#SVGID_32_);}
	.st32{fill:url(#SVGID_33_);}
	.st33{fill:url(#SVGID_34_);}
	.st34{fill:url(#SVGID_35_);}
	.st35{fill:url(#SVGID_36_);}
	.st36{fill:url(#SVGID_37_);}
	.st37{fill:url(#SVGID_38_);}
	.st38{fill:url(#SVGID_39_);}
	.st39{fill:url(#SVGID_40_);}
	.st40{fill:url(#SVGID_41_);}
	.st41{fill:url(#SVGID_42_);}
	.st42{fill:url(#SVGID_43_);}
	.st43{fill:url(#SVGID_44_);}
	.st44{fill:url(#SVGID_45_);}
	.st45{fill:url(#SVGID_46_);}
	.st46{fill:url(#SVGID_47_);}
	.st47{fill:url(#SVGID_48_);}
	.st48{fill:url(#SVGID_49_);}
	.st49{fill:url(#SVGID_50_);}
	.st50{fill:url(#SVGID_51_);}
	.st51{fill:url(#SVGID_52_);}
	.st52{fill:url(#SVGID_53_);}
	.st53{fill:url(#SVGID_54_);}
	.st54{fill:url(#SVGID_55_);}
	.st55{fill:url(#SVGID_56_);}
	.st56{fill:url(#SVGID_57_);}
	.st57{fill:url(#SVGID_58_);}
	.st58{fill:url(#SVGID_59_);}
	.st59{fill:url(#SVGID_60_);}
	.st60{fill:url(#SVGID_61_);}
	.st61{fill:url(#SVGID_62_);}
	.st62{fill:url(#SVGID_63_);}
	.st63{fill:url(#SVGID_64_);}
</style>
<g id="Layer_1">
	<g>
		<polygon points="0,16.3 0,0 18.1,0 24.1,6.8 21.1,16.3 		"/>
		<g>
			<g>
				<g>
					<linearGradient id="SVGID_1_" gradientUnits="userSpaceOnUse" x1="4.6269" y1="12.3216" x2="4.6269" y2="4.0596">
						<stop  offset="0" style="stop-color:#AC8B42"/>
						<stop  offset="0.5" style="stop-color:#D5C99C"/>
						<stop  offset="1" style="stop-color:#AC8B42"/>
					</linearGradient>
					<path class="st0" d="M2.4,4.1h4.5v1.7H5.5v6.6H3.7V5.7H2.4V4.1z"/>
					<linearGradient id="SVGID_2_" gradientUnits="userSpaceOnUse" x1="9.6185" y1="12.52" x2="9.6185" y2="3.8612">
						<stop  offset="0" style="stop-color:#AC8B42"/>
						<stop  offset="0.5" style="stop-color:#D5C99C"/>
						<stop  offset="1" style="stop-color:#AC8B42"/>
					</linearGradient>
					<path class="st1" d="M9,9.6v0.6C9,10.6,9.1,11,9.7,11c0.4,0,0.6-0.4,0.6-0.8c0-0.7-0.5-1-1-1.3C8.8,8.6,8.3,8.3,8,7.9
						C7.7,7.4,7.5,6.9,7.5,6.2c0-1.6,0.8-2.3,2.2-2.3c1.5,0,2.3,1.1,2.2,2.7h-1.6c0-0.5,0-1.1-0.6-1.2c-0.4,0-0.6,0.2-0.6,0.6
						c0,0.5,0.2,0.7,0.5,1c0.7,0.5,1.2,0.7,1.6,1.2c0.4,0.4,0.6,1,0.6,2c0,1.6-0.8,2.5-2.2,2.5c-1.6,0-2.3-1-2.3-2.1V9.6H9z"/>
					<linearGradient id="SVGID_3_" gradientUnits="userSpaceOnUse" x1="15.3287" y1="12.3216" x2="15.3287" y2="4.0596">
						<stop  offset="0" style="stop-color:#AC8B42"/>
						<stop  offset="0.5" style="stop-color:#D5C99C"/>
						<stop  offset="1" style="stop-color:#AC8B42"/>
					</linearGradient>
					<path class="st2" d="M13,12.3V4.1h2.1c0.7,0,1.6,0.1,2.1,0.7c0.4,0.5,0.5,1.1,0.5,1.8c0,0.9-0.2,1.9-1,2.3
						c-0.6,0.3-1.3,0.2-2,0.3v3.2H13z M14.7,7.6c0.3,0,0.7,0,1-0.2c0.2-0.2,0.2-0.6,0.2-0.8c0-0.3,0-0.8-0.3-1
						c-0.2-0.1-0.4-0.1-0.7-0.1h-0.2V7.6z"/>
				</g>
			</g>
		</g>
	</g>
</g>
<g id="Layer_2">
</g>
</svg>
