<?xml version="1.0" encoding="utf-8"?>
<!-- Generator: Adobe Illustrator 21.1.0, SVG Export Plug-In . SVG Version: 6.00 Build 0)  -->
<!DOCTYPE svg PUBLIC "-//W3C//DTD SVG 1.0//EN" "http://www.w3.org/TR/2001/REC-SVG-20010904/DTD/svg10.dtd">
<svg version="1.0" xmlns="http://www.w3.org/2000/svg" xmlns:xlink="http://www.w3.org/1999/xlink" x="0px" y="0px"
	 viewBox="0 0 144 75.4" style="enable-background:new 0 0 144 75.4;" xml:space="preserve">
<style type="text/css">
	.st0{fill:url(#SVGID_1_);}
	.st1{fill:url(#SVGID_2_);}
	.st2{fill:url(#SVGID_3_);}
	.st3{fill:url(#SVGID_4_);}
	.st4{fill:url(#SVGID_5_);}
	.st5{fill:url(#SVGID_6_);}
	.st6{fill:url(#SVGID_7_);}
	.st7{fill:url(#SVGID_8_);}
	.st8{fill:url(#SVGID_9_);}
	.st9{fill:url(#SVGID_10_);}
	.st10{fill:url(#SVGID_11_);}
	.st11{fill:url(#SVGID_12_);}
	.st12{fill:url(#SVGID_13_);}
	.st13{fill:url(#SVGID_14_);}
	.st14{fill:url(#SVGID_15_);}
	.st15{fill:url(#SVGID_16_);}
	.st16{fill:url(#SVGID_17_);}
	.st17{fill:url(#SVGID_18_);}
	.st18{fill:url(#SVGID_19_);}
	.st19{fill:url(#SVGID_20_);}
	.st20{fill:url(#SVGID_21_);}
	.st21{fill:url(#SVGID_22_);}
	.st22{fill:url(#SVGID_23_);}
	.st23{fill:url(#SVGID_24_);}
	.st24{fill:url(#SVGID_25_);}
	.st25{fill:url(#SVGID_26_);}
	.st26{fill:url(#SVGID_27_);}
	.st27{fill:url(#SVGID_28_);}
	.st28{fill:url(#SVGID_29_);}
	.st29{fill:url(#SVGID_30_);}
	.st30{fill:url(#SVGID_31_);}
	.st31{fill:url(#SVGID_32_);}
	.st32{fill:url(#SVGID_33_);}
	.st33{fill:url(#SVGID_34_);}
	.st34{fill:url(#SVGID_35_);}
	.st35{fill:url(#SVGID_36_);}
	.st36{fill:url(#SVGID_37_);}
	.st37{fill:url(#SVGID_38_);}
	.st38{fill:url(#SVGID_39_);}
	.st39{fill:url(#SVGID_40_);}
	.st40{fill:url(#SVGID_41_);}
	.st41{fill:url(#SVGID_42_);}
	.st42{fill:url(#SVGID_43_);}
	.st43{fill:url(#SVGID_44_);}
	.st44{fill:url(#SVGID_45_);}
	.st45{fill:url(#SVGID_46_);}
	.st46{fill:url(#SVGID_47_);}
	.st47{fill:url(#SVGID_48_);}
	.st48{fill:url(#SVGID_49_);}
	.st49{fill:url(#SVGID_50_);}
	.st50{fill:url(#SVGID_51_);}
	.st51{fill:url(#SVGID_52_);}
	.st52{fill:url(#SVGID_53_);}
	.st53{fill:url(#SVGID_54_);}
	.st54{fill:url(#SVGID_55_);}
	.st55{fill:url(#SVGID_56_);}
	.st56{fill:url(#SVGID_57_);}
	.st57{fill:url(#SVGID_58_);}
	.st58{fill:url(#SVGID_59_);}
	.st59{fill:url(#SVGID_60_);}
	.st60{fill:url(#SVGID_61_);}
	.st61{fill:url(#SVGID_62_);}
	.st62{fill:url(#SVGID_63_);}
	.st63{fill:url(#SVGID_64_);}
</style>
<g id="Layer_1">
</g>
<g id="Layer_2">
	<g>
		<rect x="49.5" y="0.1" width="6.2" height="75.2"/>
		<linearGradient id="SVGID_1_" gradientUnits="userSpaceOnUse" x1="25.2195" y1="75.3555" x2="25.2195" y2="0.1093">
			<stop  offset="0" style="stop-color:#AC8B42"/>
			<stop  offset="0.5" style="stop-color:#D5C99C"/>
			<stop  offset="1" style="stop-color:#AC8B42"/>
		</linearGradient>
		<polygon class="st0" points="50.4,75.4 0,75.4 0,0.1 50.4,0.1 		"/>
		<linearGradient id="SVGID_2_" gradientUnits="userSpaceOnUse" x1="97.9903" y1="75.3555" x2="97.9903" y2="0.1093">
			<stop  offset="0" style="stop-color:#AC8B42"/>
			<stop  offset="0.5" style="stop-color:#D5C99C"/>
			<stop  offset="1" style="stop-color:#AC8B42"/>
		</linearGradient>
		<polygon class="st1" points="54.9,75.4 54.9,0.1 113.3,0.1 141,31.7 127.3,75.4 		"/>
		<g>
			<g>
				<g>
					<path d="M63.9,39.4v1.3c0,1,0.3,1.9,1.5,1.9c0.9,0,1.3-0.9,1.3-1.8c0-1.5-1.1-2.1-2.1-2.7c-1.1-0.7-2.1-1.4-2.8-2.3
						c-0.7-0.9-1.1-2-1.1-3.5c0-3.3,1.8-5,4.7-5c3.3,0,4.9,2.4,4.7,5.7h-3.4c0-1,0-2.5-1.2-2.6c-0.8-0.1-1.2,0.4-1.3,1.2
						c-0.1,1.1,0.4,1.6,1.1,2.2c1.4,1,2.6,1.6,3.5,2.5c0.9,0.9,1.4,2.1,1.4,4.2c0,3.4-1.7,5.3-4.8,5.3c-3.4,0-4.9-2.1-4.9-4.5v-1.9
						H63.9z"/>
					<path d="M70.9,45.3l3.5-17.7h4.5l3.5,17.7h-3.8l-0.5-3.4h-2.9l-0.4,3.4H70.9z M76.7,30.8L76.7,30.8l-1.1,7.9h2.2L76.7,30.8z"/>
					<polygon points="83.8,45.3 83.8,27.6 92.6,27.6 92.6,31.2 87.5,31.2 87.5,34.3 92.2,34.3 92.2,37.9 87.5,37.9 87.5,45.3 					
						"/>
					<polygon points="94.8,45.3 94.8,27.6 103.4,27.6 103.4,31.2 98.5,31.2 98.5,34.4 103.2,34.4 103.2,38 98.5,38 98.5,41.8 
						103.6,41.8 103.6,45.3 					"/>
					<polygon points="104.9,27.6 114.6,27.6 114.6,31.2 111.6,31.2 111.6,45.3 107.9,45.3 107.9,31.2 104.9,31.2 					"/>
					<polygon points="121.4,33.4 121.4,33.4 123.4,27.6 127.1,27.6 123.2,37.9 123.2,45.3 119.5,45.3 119.5,37.9 115.7,27.6 
						119.5,27.6 					"/>
					<polygon points="71.9,7.3 81.6,7.3 81.6,10.9 78.5,10.9 78.5,25 74.8,25 74.8,10.9 71.9,10.9 					"/>
					<path d="M92.8,19.4c0,4-1.3,6.1-5,6.1s-5.1-2.1-5.1-6.1v-7.2c0-3.4,1.8-5.3,5.1-5.3c3.3,0,5,1.9,5,5.3V19.4z M89.1,12.5
						c0-1.1-0.1-2.4-1.3-2.4c-1.2,0-1.3,1.3-1.3,2.4v7.3c0,1,0.1,2.5,1.4,2.5s1.3-1.5,1.3-2.5V12.5z"/>
					<path d="M94.8,25V7.3h4.4c1.4,0,3.5,0.1,4.6,1.5c0.9,1.1,1,2.4,1,3.9c0,1.9-0.4,4.1-2.1,4.9c-1.3,0.7-2.8,0.5-4.2,0.6V25H94.8z
						 M98.5,15c0.7,0,1.5,0.1,2.1-0.4c0.4-0.5,0.5-1.2,0.5-1.8c0-0.7-0.1-1.7-0.7-2.1c-0.4-0.1-0.9-0.1-1.5-0.1h-0.4V15z"/>
					<path d="M66.6,68.1l3.9-20.2h4.8c1.4,0,3.1,0.2,4,1.3c0.9,1.1,1,2.7,0.7,4.3c-0.4,2.2-1.5,4.4-3.6,5.4
						c-1.4,0.6-3.4,0.6-4.8,0.6h-1.2l-1.6,8.6H66.6z M70.6,57.5h2c2.8,0,4.5-0.5,5.2-3.9c0.6-3.3-1.2-3.7-3.6-3.7H72L70.6,57.5z"/>
					<polygon points="78.9,68.1 82.7,47.9 84.7,47.9 80.9,68.1 					"/>
					<path d="M94.6,53.9c0.4-2.4,0.1-4.4-2.4-4.4c-3.5,0-4.6,5.5-5.1,8.2c-0.6,2.7-1.8,8.9,1.8,8.9c2.4,0,3.3-2.2,4-4.4
						c0.1-0.5,0.2-0.9,0.4-1.4h2c-0.1,0.4-0.2,0.8-0.3,1.2c-0.4,1.6-0.7,2.9-1.9,4.3c-1.2,1.5-2.6,2.3-4.4,2.3
						c-5.6,0-4.6-6-3.7-10.8c0.9-4.5,2.6-10.2,7.7-10.2c3.4,0,4.7,2.8,3.9,6.5H94.6z"/>
					<polygon points="96.4,68.1 100.3,47.9 102.3,47.9 100.3,58.2 100.4,58.2 108.9,47.9 111.4,47.9 104,56.3 107.7,68.1 
						105.3,68.1 102.2,58.3 99.8,61.1 98.5,68.1 					"/>
				</g>
			</g>
			<g>
				<polygon points="119,48.2 123.1,48.2 121.7,55.4 127.6,55.4 126.8,59.9 120.9,59.9 119.4,67.5 115.4,67.5 116.8,59.9 
					110.9,59.9 111.8,55.4 117.7,55.4 				"/>
			</g>
		</g>
		<g>
			<g>
				<g>
					<g>
						<g>
							<g>
								<path d="M8,57V37.4h4.1V57H8z"/>
								<path d="M14.5,57V37.4h4.1V57H14.5z"/>
								<path d="M20.8,57l0-19.6H25V45l2.9,0l0-7.5H32L32,57h-4.1l0-8.1l-2.9,0V57H20.8z"/>
								<path d="M37.1,50.5l0,1.4c0,1.1,0.3,2.1,1.6,2.1c1,0,1.4-1,1.4-2c0-1.6-1.2-2.3-2.3-3c-1.3-0.8-2.3-1.6-3.1-2.6
									c-0.8-1-1.2-2.2-1.2-3.9c0-3.7,2-5.6,5.2-5.6c3.6,0,5.4,2.7,5.2,6.4l-3.8,0c0-1.2,0-2.7-1.4-2.8c-0.8-0.1-1.3,0.4-1.4,1.3
									c-0.1,1.2,0.4,1.8,1.2,2.4c1.6,1.1,2.9,1.8,3.9,2.8c1,1,1.5,2.3,1.5,4.7c0,3.8-1.9,5.8-5.3,5.8c-3.8,0-5.4-2.4-5.4-5l0-2.1
									L37.1,50.5z"/>
							</g>
						</g>
					</g>
				</g>
			</g>
		</g>
	</g>
	<g>
		<path d="M8,23.8V23c0-3.2,1.5-5,4.5-5c2.6,0,4.2,1.5,4.2,4.5c0,2-0.6,3.2-1.8,4.7l-1.3,1.4c-0.5,0.6-1.8,1.9-1.9,2.8h5v2.9H8v-0.5
			c0-2.7,1.5-5,3.1-6.9l1.5-1.7c0.7-0.9,0.9-1.6,0.9-2.7c0-0.8-0.3-1.7-1.2-1.6c-1,0.1-1.1,1.6-1.1,2.4v0.8H8z"/>
		<path d="M18,22.6c0-3.2,1.6-4.6,4.3-4.6c3.5,0,4.4,1.9,4.3,5.5v5.8c0,3.6-1,5.3-4.3,5.3c-2.7,0-4.3-1.3-4.3-4.5V22.6z M23.4,22.6
			c0-0.2,0.1-1.9-1.1-1.9c-1.1,0-1.1,1-1.1,1.9v7.3c0,1,0,2,1.1,2c1.1,0,1.1-1.5,1.1-2V22.6z"/>
		<path d="M30.7,23.2h-3v-2.5c1.6,0,3.5-0.5,3.9-2.4h2.2v15.9h-3.1V23.2z"/>
		<path d="M35.5,18.3h8.4V21c-1.2,2.4-2,5-2.6,7.7c-0.4,1.9-0.7,3.5-0.9,5.5H37c0-2.2,1.4-7.1,2.3-9.2l1.5-3.8h-5.3V18.3z"/>
	</g>
</g>
</svg>
