<?xml version="1.0" encoding="utf-8"?>
<!-- Generator: Adobe Illustrator 21.1.0, SVG Export Plug-In . SVG Version: 6.00 Build 0)  -->
<!DOCTYPE svg PUBLIC "-//W3C//DTD SVG 1.0//EN" "http://www.w3.org/TR/2001/REC-SVG-20010904/DTD/svg10.dtd">
<svg version="1.0" xmlns="http://www.w3.org/2000/svg" xmlns:xlink="http://www.w3.org/1999/xlink" x="0px" y="0px"
	 viewBox="0 0 72 37.7" style="enable-background:new 0 0 72 37.7;" xml:space="preserve">
<style type="text/css">
	.st0{fill:url(#SVGID_1_);}
	.st1{fill:url(#SVGID_2_);}
	.st2{fill:url(#SVGID_3_);}
	.st3{fill:url(#SVGID_4_);}
	.st4{fill:url(#SVGID_5_);}
	.st5{fill:url(#SVGID_6_);}
	.st6{fill:url(#SVGID_7_);}
	.st7{fill:url(#SVGID_8_);}
	.st8{fill:url(#SVGID_9_);}
	.st9{fill:url(#SVGID_10_);}
	.st10{fill:url(#SVGID_11_);}
	.st11{fill:url(#SVGID_12_);}
	.st12{fill:url(#SVGID_13_);}
	.st13{fill:url(#SVGID_14_);}
	.st14{fill:url(#SVGID_15_);}
	.st15{fill:url(#SVGID_16_);}
	.st16{fill:url(#SVGID_17_);}
	.st17{fill:url(#SVGID_18_);}
	.st18{fill:url(#SVGID_19_);}
	.st19{fill:url(#SVGID_20_);}
	.st20{fill:url(#SVGID_21_);}
	.st21{fill:url(#SVGID_22_);}
	.st22{fill:url(#SVGID_23_);}
	.st23{fill:url(#SVGID_24_);}
	.st24{fill:url(#SVGID_25_);}
	.st25{fill:url(#SVGID_26_);}
	.st26{fill:url(#SVGID_27_);}
	.st27{fill:url(#SVGID_28_);}
	.st28{fill:url(#SVGID_29_);}
	.st29{fill:url(#SVGID_30_);}
	.st30{fill:url(#SVGID_31_);}
	.st31{fill:url(#SVGID_32_);}
	.st32{fill:url(#SVGID_33_);}
	.st33{fill:url(#SVGID_34_);}
	.st34{fill:url(#SVGID_35_);}
	.st35{fill:url(#SVGID_36_);}
	.st36{fill:url(#SVGID_37_);}
	.st37{fill:url(#SVGID_38_);}
	.st38{fill:url(#SVGID_39_);}
	.st39{fill:url(#SVGID_40_);}
	.st40{fill:url(#SVGID_41_);}
	.st41{fill:url(#SVGID_42_);}
	.st42{fill:url(#SVGID_43_);}
	.st43{fill:url(#SVGID_44_);}
	.st44{fill:url(#SVGID_45_);}
	.st45{fill:url(#SVGID_46_);}
	.st46{fill:url(#SVGID_47_);}
	.st47{fill:url(#SVGID_48_);}
	.st48{fill:url(#SVGID_49_);}
	.st49{fill:url(#SVGID_50_);}
	.st50{fill:url(#SVGID_51_);}
	.st51{fill:url(#SVGID_52_);}
	.st52{fill:url(#SVGID_53_);}
	.st53{fill:url(#SVGID_54_);}
	.st54{fill:url(#SVGID_55_);}
	.st55{fill:url(#SVGID_56_);}
	.st56{fill:url(#SVGID_57_);}
	.st57{fill:url(#SVGID_58_);}
	.st58{fill:url(#SVGID_59_);}
	.st59{fill:url(#SVGID_60_);}
	.st60{fill:url(#SVGID_61_);}
	.st61{fill:url(#SVGID_62_);}
	.st62{fill:url(#SVGID_63_);}
	.st63{fill:url(#SVGID_64_);}
</style>
<g id="Layer_1">
</g>
<g id="Layer_2">
	<g>
		<rect x="24.7" y="0.1" width="3.1" height="37.5"/>
		<linearGradient id="SVGID_1_" gradientUnits="userSpaceOnUse" x1="12.5838" y1="37.6007" x2="12.5838" y2="5.469979e-02">
			<stop  offset="0" style="stop-color:#AC8B42"/>
			<stop  offset="0.5" style="stop-color:#D5C99C"/>
			<stop  offset="1" style="stop-color:#AC8B42"/>
		</linearGradient>
		<rect x="0" y="0.1" class="st0" width="25.2" height="37.5"/>
		<linearGradient id="SVGID_2_" gradientUnits="userSpaceOnUse" x1="48.8947" y1="37.6007" x2="48.8947" y2="5.469979e-02">
			<stop  offset="0" style="stop-color:#AC8B42"/>
			<stop  offset="0.5" style="stop-color:#D5C99C"/>
			<stop  offset="1" style="stop-color:#AC8B42"/>
		</linearGradient>
		<polygon class="st1" points="27.4,37.6 27.4,0.1 56.5,0.1 70.4,15.8 63.5,37.6 		"/>
		<g>
			<g>
				<g>
					<path d="M31.9,19.7v0.6c0,0.5,0.1,1,0.7,1c0.4,0,0.6-0.4,0.6-0.9c0-0.7-0.6-1-1-1.4c-0.6-0.4-1.1-0.7-1.4-1.2
						c-0.3-0.4-0.5-1-0.5-1.8c0-1.7,0.9-2.5,2.3-2.5c1.6,0,2.5,1.2,2.4,2.9h-1.7c0-0.5,0-1.2-0.6-1.3c-0.4,0-0.6,0.2-0.6,0.6
						c-0.1,0.5,0.2,0.8,0.6,1.1c0.7,0.5,1.3,0.8,1.7,1.3c0.4,0.4,0.7,1,0.7,2.1c0,1.7-0.8,2.6-2.4,2.6c-1.7,0-2.4-1.1-2.4-2.2v-0.9
						H31.9z"/>
					<path d="M35.4,22.6l1.7-8.8h2.2l1.7,8.8h-1.9L39,20.9h-1.5l-0.2,1.7H35.4z M38.3,15.4L38.3,15.4l-0.6,4h1.1L38.3,15.4z"/>
					<polygon points="41.8,22.6 41.8,13.8 46.2,13.8 46.2,15.6 43.7,15.6 43.7,17.1 46,17.1 46,18.9 43.7,18.9 43.7,22.6 					"/>
					<polygon points="47.3,22.6 47.3,13.8 51.6,13.8 51.6,15.6 49.2,15.6 49.2,17.2 51.5,17.2 51.5,19 49.2,19 49.2,20.9 51.7,20.9 
						51.7,22.6 					"/>
					<polygon points="52.4,13.8 57.2,13.8 57.2,15.6 55.7,15.6 55.7,22.6 53.8,22.6 53.8,15.6 52.4,15.6 					"/>
					<polygon points="60.6,16.7 60.6,16.7 61.6,13.8 63.4,13.8 61.5,18.9 61.5,22.6 59.6,22.6 59.6,18.9 57.8,13.8 59.6,13.8 					
						"/>
					<polygon points="35.9,3.7 40.7,3.7 40.7,5.4 39.2,5.4 39.2,12.5 37.3,12.5 37.3,5.4 35.9,5.4 					"/>
					<path d="M46.3,9.7c0,2-0.6,3-2.5,3c-1.9,0-2.5-1-2.5-3V6.1c0-1.7,0.9-2.6,2.5-2.6c1.6,0,2.5,0.9,2.5,2.6V9.7z M44.4,6.2
						c0-0.5,0-1.2-0.7-1.2c-0.6,0-0.7,0.6-0.7,1.2v3.6c0,0.5,0.1,1.3,0.7,1.3c0.6,0,0.6-0.8,0.6-1.3V6.2z"/>
					<path d="M47.3,12.5V3.7h2.2c0.7,0,1.8,0.1,2.3,0.7c0.4,0.5,0.5,1.2,0.5,1.9c0,1-0.2,2-1.1,2.5c-0.6,0.4-1.4,0.2-2.1,0.3v3.4
						H47.3z M49.2,7.5c0.3,0,0.8,0,1.1-0.2c0.2-0.2,0.2-0.6,0.2-0.9c0-0.3,0-0.9-0.4-1c-0.2-0.1-0.4-0.1-0.7-0.1h-0.2V7.5z"/>
					<path d="M33.2,34l1.9-10.1h2.4c0.7,0,1.6,0.1,2,0.7c0.4,0.6,0.5,1.3,0.3,2.1c-0.2,1.1-0.7,2.2-1.8,2.7
						c-0.7,0.3-1.7,0.3-2.4,0.3H35L34.2,34H33.2z M35.2,28.7h1c1.4,0,2.3-0.2,2.6-2c0.3-1.6-0.6-1.9-1.8-1.8h-1L35.2,28.7z"/>
					<polygon points="39.3,34 41.3,23.9 42.3,23.9 40.4,34 					"/>
					<path d="M47.2,26.9c0.2-1.2,0-2.2-1.2-2.2c-1.7,0-2.3,2.8-2.5,4.1c-0.3,1.4-0.9,4.4,0.9,4.4c1.2,0,1.7-1.1,2-2.2
						c0.1-0.2,0.1-0.5,0.2-0.7h1c-0.1,0.2-0.1,0.4-0.2,0.6c-0.2,0.8-0.4,1.4-0.9,2.1c-0.6,0.7-1.3,1.1-2.2,1.1c-2.8,0-2.3-3-1.9-5.4
						c0.4-2.3,1.3-5.1,3.9-5.1c1.7,0,2.3,1.4,1.9,3.2H47.2z"/>
					<polygon points="48.1,34 50,23.9 51,23.9 50.1,29.1 50.1,29.1 54.3,23.9 55.6,23.9 51.9,28.1 53.8,34 52.5,34 51,29.1 
						49.8,30.5 49.1,34 					"/>
				</g>
			</g>
			<g>
				<polygon points="59.4,24 61.4,24 60.7,27.7 63.7,27.7 63.3,29.9 60.3,29.9 59.6,33.7 57.6,33.7 58.3,29.9 55.3,29.9 55.8,27.7 
					58.7,27.7 				"/>
			</g>
		</g>
		<g>
			<g>
				<g>
					<g>
						<g>
							<g>
								<path d="M4,28.5v-9.8h2.1v9.8H4z"/>
								<path d="M7.2,28.5v-9.8h2.1v9.8H7.2z"/>
								<path d="M10.4,28.5l0-9.8h2.1v3.8l1.4,0l0-3.8H16l0,9.8h-2.1l0-4.1l-1.4,0v4.1H10.4z"/>
								<path d="M18.5,25.2l0,0.7c0,0.6,0.2,1.1,0.8,1.1c0.5,0,0.7-0.5,0.7-1c0-0.8-0.6-1.1-1.1-1.5c-0.6-0.4-1.2-0.8-1.6-1.3
									c-0.4-0.5-0.6-1.1-0.6-2c0-1.8,1-2.8,2.6-2.8c1.8,0,2.7,1.3,2.6,3.2l-1.9,0c0-0.6,0-1.4-0.7-1.4c-0.4,0-0.7,0.2-0.7,0.6
									c-0.1,0.6,0.2,0.9,0.6,1.2c0.8,0.5,1.4,0.9,1.9,1.4c0.5,0.5,0.8,1.1,0.8,2.3c0,1.9-0.9,2.9-2.7,2.9c-1.9,0-2.7-1.2-2.7-2.5
									l0-1L18.5,25.2z"/>
							</g>
						</g>
					</g>
				</g>
			</g>
		</g>
	</g>
	<g>
		<path d="M4,11.9v-0.4C4,9.9,4.8,9,6.2,9c1.3,0,2.1,0.7,2.1,2.2c0,1-0.3,1.6-0.9,2.3l-0.6,0.7c-0.3,0.3-0.9,1-1,1.4h2.5v1.5H4v-0.3
			c0-1.3,0.7-2.5,1.5-3.4l0.7-0.9c0.4-0.4,0.5-0.8,0.5-1.4c0-0.4-0.2-0.8-0.6-0.8c-0.5,0-0.6,0.8-0.6,1.2v0.4H4z"/>
		<path d="M9,11.3C9,9.6,9.8,9,11.2,9c1.8,0,2.2,0.9,2.1,2.8v2.9c0,1.8-0.5,2.6-2.2,2.6C9.8,17.3,9,16.6,9,15V11.3z M11.7,11.3
			c0-0.1,0.1-0.9-0.5-0.9c-0.5,0-0.5,0.5-0.5,0.9v3.6c0,0.5,0,1,0.5,1c0.6,0,0.5-0.7,0.5-1V11.3z"/>
		<path d="M15.3,11.6h-1.5v-1.2c0.8,0,1.8-0.3,1.9-1.2h1.1v7.9h-1.5V11.6z"/>
		<path d="M17.7,9.1h4.2v1.4c-0.6,1.2-1,2.5-1.3,3.8c-0.2,0.9-0.3,1.8-0.4,2.7h-1.7c0-1.1,0.7-3.6,1.1-4.6l0.8-1.9h-2.7V9.1z"/>
	</g>
</g>
</svg>
