<?xml version="1.0" encoding="utf-8"?>
<!-- Generator: Adobe Illustrator 21.1.0, SVG Export Plug-In . SVG Version: 6.00 Build 0)  -->
<!DOCTYPE svg PUBLIC "-//W3C//DTD SVG 1.0//EN" "http://www.w3.org/TR/2001/REC-SVG-20010904/DTD/svg10.dtd">
<svg version="1.0" xmlns="http://www.w3.org/2000/svg" xmlns:xlink="http://www.w3.org/1999/xlink" x="0px" y="0px"
	 viewBox="0 0 144 75.4" style="enable-background:new 0 0 144 75.4;" xml:space="preserve">
<style type="text/css">
	.st0{fill:url(#SVGID_1_);}
	.st1{fill:url(#SVGID_2_);}
	.st2{fill:url(#SVGID_3_);}
	.st3{fill:url(#SVGID_4_);}
	.st4{fill:url(#SVGID_5_);}
	.st5{fill:url(#SVGID_6_);}
	.st6{fill:url(#SVGID_7_);}
	.st7{fill:url(#SVGID_8_);}
	.st8{fill:url(#SVGID_9_);}
	.st9{fill:url(#SVGID_10_);}
	.st10{fill:url(#SVGID_11_);}
	.st11{fill:url(#SVGID_12_);}
	.st12{fill:url(#SVGID_13_);}
	.st13{fill:url(#SVGID_14_);}
	.st14{fill:url(#SVGID_15_);}
	.st15{fill:url(#SVGID_16_);}
	.st16{fill:url(#SVGID_17_);}
	.st17{fill:url(#SVGID_18_);}
	.st18{fill:url(#SVGID_19_);}
	.st19{fill:url(#SVGID_20_);}
	.st20{fill:url(#SVGID_21_);}
	.st21{fill:url(#SVGID_22_);}
	.st22{fill:url(#SVGID_23_);}
	.st23{fill:url(#SVGID_24_);}
	.st24{fill:url(#SVGID_25_);}
	.st25{fill:url(#SVGID_26_);}
	.st26{fill:url(#SVGID_27_);}
	.st27{fill:url(#SVGID_28_);}
	.st28{fill:url(#SVGID_29_);}
	.st29{fill:url(#SVGID_30_);}
	.st30{fill:url(#SVGID_31_);}
	.st31{fill:url(#SVGID_32_);}
	.st32{fill:url(#SVGID_33_);}
	.st33{fill:url(#SVGID_34_);}
	.st34{fill:url(#SVGID_35_);}
	.st35{fill:url(#SVGID_36_);}
	.st36{fill:url(#SVGID_37_);}
	.st37{fill:url(#SVGID_38_);}
	.st38{fill:url(#SVGID_39_);}
	.st39{fill:url(#SVGID_40_);}
	.st40{fill:url(#SVGID_41_);}
	.st41{fill:url(#SVGID_42_);}
	.st42{fill:url(#SVGID_43_);}
	.st43{fill:url(#SVGID_44_);}
	.st44{fill:url(#SVGID_45_);}
	.st45{fill:url(#SVGID_46_);}
	.st46{fill:url(#SVGID_47_);}
	.st47{fill:url(#SVGID_48_);}
	.st48{fill:url(#SVGID_49_);}
	.st49{fill:url(#SVGID_50_);}
	.st50{fill:url(#SVGID_51_);}
	.st51{fill:url(#SVGID_52_);}
	.st52{fill:url(#SVGID_53_);}
	.st53{fill:url(#SVGID_54_);}
	.st54{fill:url(#SVGID_55_);}
	.st55{fill:url(#SVGID_56_);}
	.st56{fill:url(#SVGID_57_);}
	.st57{fill:url(#SVGID_58_);}
	.st58{fill:url(#SVGID_59_);}
	.st59{fill:url(#SVGID_60_);}
	.st60{fill:url(#SVGID_61_);}
	.st61{fill:url(#SVGID_62_);}
	.st62{fill:url(#SVGID_63_);}
	.st63{fill:url(#SVGID_64_);}
</style>
<g id="Layer_1">
</g>
<g id="Layer_2">
	<g>
		<g>
			<linearGradient id="SVGID_1_" gradientUnits="userSpaceOnUse" x1="52.6071" y1="75.2052" x2="52.6071" y2="0">
				<stop  offset="0" style="stop-color:#AC8B42"/>
				<stop  offset="0.5" style="stop-color:#D5C99C"/>
				<stop  offset="1" style="stop-color:#AC8B42"/>
			</linearGradient>
			<rect x="49.5" y="0" class="st0" width="6.2" height="75.2"/>
			<polygon points="50.4,75.2 0,75.2 0,0 50.4,0 			"/>
			<polygon points="54.9,75.2 54.9,0 113.3,0 141,31.6 127.2,75.2 			"/>
			<g>
				<linearGradient id="SVGID_2_" gradientUnits="userSpaceOnUse" x1="65.2357" y1="45.6387" x2="65.2357" y2="27.0816">
					<stop  offset="0" style="stop-color:#AC8B42"/>
					<stop  offset="0.5" style="stop-color:#D5C99C"/>
					<stop  offset="1" style="stop-color:#AC8B42"/>
				</linearGradient>
				<path class="st1" d="M63.9,39.3v1.3c0,1,0.3,1.9,1.5,1.9c0.9,0,1.3-0.9,1.3-1.8c0-1.5-1.1-2.1-2.1-2.7c-1.1-0.7-2.1-1.4-2.8-2.3
					c-0.7-0.9-1.1-2-1.1-3.5c0-3.3,1.8-5,4.7-5c3.3,0,4.9,2.4,4.7,5.7h-3.4c0-1,0-2.5-1.2-2.5c-0.8-0.1-1.2,0.4-1.3,1.2
					c-0.1,1.1,0.4,1.6,1.1,2.2c1.4,1,2.6,1.6,3.5,2.5c0.9,0.9,1.4,2.1,1.4,4.2c0,3.4-1.7,5.3-4.8,5.3c-3.4,0-4.9-2.1-4.9-4.5v-1.9
					H63.9z"/>
				<linearGradient id="SVGID_3_" gradientUnits="userSpaceOnUse" x1="76.6061" y1="45.2141" x2="76.6061" y2="27.5062">
					<stop  offset="0" style="stop-color:#AC8B42"/>
					<stop  offset="0.5" style="stop-color:#D5C99C"/>
					<stop  offset="1" style="stop-color:#AC8B42"/>
				</linearGradient>
				<path class="st2" d="M70.9,45.2l3.5-17.7h4.5l3.5,17.7h-3.8L78,41.8h-2.9l-0.4,3.4H70.9z M76.6,30.7L76.6,30.7l-1.1,7.9h2.2
					L76.6,30.7z"/>
				<linearGradient id="SVGID_4_" gradientUnits="userSpaceOnUse" x1="88.1568" y1="45.2141" x2="88.1568" y2="27.5062">
					<stop  offset="0" style="stop-color:#AC8B42"/>
					<stop  offset="0.5" style="stop-color:#D5C99C"/>
					<stop  offset="1" style="stop-color:#AC8B42"/>
				</linearGradient>
				<polygon class="st3" points="83.8,45.2 83.8,27.5 92.6,27.5 92.6,31 87.5,31 87.5,34.2 92.2,34.2 92.2,37.7 87.5,37.7 
					87.5,45.2 				"/>
				<linearGradient id="SVGID_5_" gradientUnits="userSpaceOnUse" x1="99.1553" y1="45.2141" x2="99.1553" y2="27.5062">
					<stop  offset="0" style="stop-color:#AC8B42"/>
					<stop  offset="0.5" style="stop-color:#D5C99C"/>
					<stop  offset="1" style="stop-color:#AC8B42"/>
				</linearGradient>
				<polygon class="st4" points="94.7,45.2 94.7,27.5 103.3,27.5 103.3,31 98.5,31 98.5,34.3 103.2,34.3 103.2,37.8 98.5,37.8 
					98.5,41.7 103.6,41.7 103.6,45.2 				"/>
				<linearGradient id="SVGID_6_" gradientUnits="userSpaceOnUse" x1="109.7067" y1="45.2141" x2="109.7067" y2="27.5062">
					<stop  offset="0" style="stop-color:#AC8B42"/>
					<stop  offset="0.5" style="stop-color:#D5C99C"/>
					<stop  offset="1" style="stop-color:#AC8B42"/>
				</linearGradient>
				<polygon class="st5" points="104.9,27.5 114.6,27.5 114.6,31 111.5,31 111.5,45.2 107.8,45.2 107.8,31 104.9,31 				"/>
				<linearGradient id="SVGID_7_" gradientUnits="userSpaceOnUse" x1="121.353" y1="45.2141" x2="121.353" y2="27.5062">
					<stop  offset="0" style="stop-color:#AC8B42"/>
					<stop  offset="0.5" style="stop-color:#D5C99C"/>
					<stop  offset="1" style="stop-color:#AC8B42"/>
				</linearGradient>
				<polygon class="st6" points="121.3,33.3 121.4,33.3 123.3,27.5 127,27.5 123.2,37.8 123.2,45.2 119.4,45.2 119.4,37.8 
					115.7,27.5 119.5,27.5 				"/>
				<linearGradient id="SVGID_8_" gradientUnits="userSpaceOnUse" x1="76.667" y1="24.9203" x2="76.667" y2="7.211">
					<stop  offset="0" style="stop-color:#AC8B42"/>
					<stop  offset="0.5" style="stop-color:#D5C99C"/>
					<stop  offset="1" style="stop-color:#AC8B42"/>
				</linearGradient>
				<polygon class="st7" points="71.8,7.2 81.5,7.2 81.5,10.8 78.5,10.8 78.5,24.9 74.8,24.9 74.8,10.8 71.8,10.8 				"/>
				<linearGradient id="SVGID_9_" gradientUnits="userSpaceOnUse" x1="87.6863" y1="25.3435" x2="87.6863" y2="6.7863">
					<stop  offset="0" style="stop-color:#AC8B42"/>
					<stop  offset="0.5" style="stop-color:#D5C99C"/>
					<stop  offset="1" style="stop-color:#AC8B42"/>
				</linearGradient>
				<path class="st8" d="M92.8,19.3c0,4-1.3,6.1-5,6.1c-3.8,0-5.1-2.1-5.1-6.1v-7.2c0-3.4,1.8-5.3,5.1-5.3c3.3,0,5,1.9,5,5.3V19.3z
					 M89,12.4c0-1.1-0.1-2.4-1.3-2.4c-1.2,0-1.3,1.3-1.3,2.4v7.3c0,1,0.1,2.5,1.4,2.5c1.2,0,1.3-1.5,1.3-2.5V12.4z"/>
				<linearGradient id="SVGID_10_" gradientUnits="userSpaceOnUse" x1="99.7366" y1="24.9203" x2="99.7366" y2="7.211">
					<stop  offset="0" style="stop-color:#AC8B42"/>
					<stop  offset="0.5" style="stop-color:#D5C99C"/>
					<stop  offset="1" style="stop-color:#AC8B42"/>
				</linearGradient>
				<path class="st9" d="M94.7,24.9V7.2h4.4c1.4,0,3.5,0.1,4.6,1.5c0.9,1.1,1,2.4,1,3.8c0,1.9-0.4,4.1-2.1,4.9
					c-1.3,0.7-2.8,0.5-4.2,0.6v6.9H94.7z M98.5,14.8c0.7,0,1.5,0.1,2.1-0.4c0.4-0.5,0.5-1.2,0.5-1.8c0-0.7-0.1-1.7-0.7-2.1
					c-0.4-0.1-0.9-0.1-1.5-0.1h-0.4V14.8z"/>
				<linearGradient id="SVGID_11_" gradientUnits="userSpaceOnUse" x1="73.2367" y1="67.9357" x2="73.2367" y2="47.7576">
					<stop  offset="0" style="stop-color:#AC8B42"/>
					<stop  offset="0.5" style="stop-color:#D5C99C"/>
					<stop  offset="1" style="stop-color:#AC8B42"/>
				</linearGradient>
				<path class="st10" d="M66.5,67.9l3.9-20.2h4.8c1.4,0,3.1,0.2,4,1.3c0.9,1.1,1,2.7,0.7,4.3c-0.4,2.2-1.4,4.4-3.6,5.4
					c-1.4,0.6-3.4,0.6-4.8,0.6h-1.2l-1.6,8.6H66.5z M70.6,57.4h2c2.8,0,4.5-0.5,5.2-3.9c0.6-3.3-1.2-3.7-3.6-3.7H72L70.6,57.4z"/>
				<linearGradient id="SVGID_12_" gradientUnits="userSpaceOnUse" x1="81.7498" y1="67.9357" x2="81.7498" y2="47.7576">
					<stop  offset="0" style="stop-color:#AC8B42"/>
					<stop  offset="0.5" style="stop-color:#D5C99C"/>
					<stop  offset="1" style="stop-color:#AC8B42"/>
				</linearGradient>
				<polygon class="st11" points="78.8,67.9 82.7,47.8 84.7,47.8 80.8,67.9 				"/>
				<linearGradient id="SVGID_13_" gradientUnits="userSpaceOnUse" x1="90.5455" y1="68.4189" x2="90.5455" y2="47.3549">
					<stop  offset="0" style="stop-color:#AC8B42"/>
					<stop  offset="0.5" style="stop-color:#D5C99C"/>
					<stop  offset="1" style="stop-color:#AC8B42"/>
				</linearGradient>
				<path class="st12" d="M94.6,53.8c0.4-2.4,0.1-4.4-2.4-4.4c-3.5,0-4.6,5.5-5.1,8.2c-0.6,2.7-1.8,8.9,1.8,8.9c2.4,0,3.3-2.2,4-4.4
					c0.1-0.5,0.2-0.9,0.4-1.4h2c-0.1,0.4-0.2,0.8-0.3,1.2c-0.4,1.6-0.7,2.9-1.9,4.3c-1.2,1.5-2.6,2.3-4.4,2.3c-5.6,0-4.6-6-3.7-10.8
					c0.9-4.5,2.6-10.2,7.7-10.2c3.4,0,4.7,2.8,3.9,6.5H94.6z"/>
				<linearGradient id="SVGID_14_" gradientUnits="userSpaceOnUse" x1="103.8762" y1="67.9357" x2="103.8762" y2="47.7576">
					<stop  offset="0" style="stop-color:#AC8B42"/>
					<stop  offset="0.5" style="stop-color:#D5C99C"/>
					<stop  offset="1" style="stop-color:#AC8B42"/>
				</linearGradient>
				<polygon class="st13" points="96.4,67.9 100.2,47.8 102.3,47.8 100.3,58.1 100.3,58.1 108.9,47.8 111.4,47.8 104,56.2 
					107.7,67.9 105.2,67.9 102.2,58.2 99.8,60.9 98.4,67.9 				"/>
			</g>
		</g>
		<g>
			<g>
				<g>
					<g>
						<g>
							<g>
								<linearGradient id="SVGID_15_" gradientUnits="userSpaceOnUse" x1="10.0599" y1="56.7552" x2="10.0599" y2="37.171">
									<stop  offset="0" style="stop-color:#AC8B42"/>
									<stop  offset="0.5" style="stop-color:#D5C99C"/>
									<stop  offset="1" style="stop-color:#AC8B42"/>
								</linearGradient>
								<path class="st14" d="M8,56.8V37.2h4.1v19.6H8z"/>
								<linearGradient id="SVGID_16_" gradientUnits="userSpaceOnUse" x1="16.5888" y1="56.7552" x2="16.5888" y2="37.171">
									<stop  offset="0" style="stop-color:#AC8B42"/>
									<stop  offset="0.5" style="stop-color:#D5C99C"/>
									<stop  offset="1" style="stop-color:#AC8B42"/>
								</linearGradient>
								<path class="st15" d="M14.5,56.8V37.2h4.1v19.6H14.5z"/>
								<linearGradient id="SVGID_17_" gradientUnits="userSpaceOnUse" x1="26.395" y1="56.7552" x2="26.395" y2="37.171">
									<stop  offset="0" style="stop-color:#AC8B42"/>
									<stop  offset="0.5" style="stop-color:#D5C99C"/>
									<stop  offset="1" style="stop-color:#AC8B42"/>
								</linearGradient>
								<path class="st16" d="M20.8,56.8l0-19.6H25v7.5l2.9,0l0-7.5H32l0,19.6h-4.1l0-8.1l-2.9,0v8.1H20.8z"/>
								<linearGradient id="SVGID_18_" gradientUnits="userSpaceOnUse" x1="38.6466" y1="57.2725" x2="38.6466" y2="36.7502">
									<stop  offset="0" style="stop-color:#AC8B42"/>
									<stop  offset="0.5" style="stop-color:#D5C99C"/>
									<stop  offset="1" style="stop-color:#AC8B42"/>
								</linearGradient>
								<path class="st17" d="M37.1,50.2l0,1.4c0,1.1,0.3,2.1,1.6,2.1c1,0,1.4-1,1.4-2c0-1.6-1.2-2.3-2.3-3
									c-1.3-0.8-2.3-1.6-3.1-2.6c-0.8-1-1.2-2.2-1.2-3.9c0-3.7,2-5.6,5.2-5.5c3.6,0,5.4,2.7,5.2,6.4l-3.8,0c0-1.1,0-2.7-1.4-2.8
									c-0.8-0.1-1.3,0.4-1.4,1.3c-0.1,1.2,0.4,1.8,1.2,2.4c1.5,1.1,2.9,1.8,3.8,2.8c1,1,1.5,2.3,1.5,4.7c0,3.8-1.9,5.8-5.3,5.8
									c-3.8,0-5.4-2.4-5.4-4.9l0-2.1L37.1,50.2z"/>
							</g>
						</g>
					</g>
				</g>
			</g>
		</g>
	</g>
	<g>
		<linearGradient id="SVGID_19_" gradientUnits="userSpaceOnUse" x1="12.3327" y1="33.9114" x2="12.3327" y2="17.6816">
			<stop  offset="0" style="stop-color:#AC8B42"/>
			<stop  offset="0.5" style="stop-color:#D5C99C"/>
			<stop  offset="1" style="stop-color:#AC8B42"/>
		</linearGradient>
		<path class="st18" d="M8,23.5v-0.8c0-3.2,1.5-5,4.5-5c2.6,0,4.2,1.4,4.2,4.5c0,2-0.6,3.2-1.8,4.7l-1.3,1.4
			c-0.5,0.6-1.8,1.9-1.9,2.8h5v2.9H8v-0.5c0-2.7,1.5-5,3.1-6.9l1.5-1.7c0.7-0.9,0.9-1.6,0.9-2.7c0-0.8-0.3-1.7-1.2-1.6
			c-1,0.1-1.1,1.6-1.1,2.4v0.8H8z"/>
		<linearGradient id="SVGID_20_" gradientUnits="userSpaceOnUse" x1="22.3163" y1="34.301" x2="22.3163" y2="17.6816">
			<stop  offset="0" style="stop-color:#AC8B42"/>
			<stop  offset="0.5" style="stop-color:#D5C99C"/>
			<stop  offset="1" style="stop-color:#AC8B42"/>
		</linearGradient>
		<path class="st19" d="M18,22.3c0-3.2,1.6-4.6,4.3-4.6c3.5,0,4.4,1.9,4.3,5.5V29c0,3.5-1,5.3-4.3,5.3c-2.7,0-4.3-1.3-4.3-4.5V22.3z
			 M23.4,22.3c0-0.2,0.1-1.9-1.1-1.9c-1.1,0-1.1,1-1.1,1.9v7.3c0,1,0,2,1.1,2c1.1,0,1.1-1.5,1.1-2V22.3z"/>
		<linearGradient id="SVGID_21_" gradientUnits="userSpaceOnUse" x1="30.7488" y1="33.9114" x2="30.7488" y2="18.0278">
			<stop  offset="0" style="stop-color:#AC8B42"/>
			<stop  offset="0.5" style="stop-color:#D5C99C"/>
			<stop  offset="1" style="stop-color:#AC8B42"/>
		</linearGradient>
		<path class="st20" d="M30.7,23h-3v-2.5c1.6,0,3.5-0.5,3.9-2.4h2.2v15.9h-3.1V23z"/>
		<linearGradient id="SVGID_22_" gradientUnits="userSpaceOnUse" x1="39.6498" y1="33.9114" x2="39.6498" y2="18.0278">
			<stop  offset="0" style="stop-color:#AC8B42"/>
			<stop  offset="0.5" style="stop-color:#D5C99C"/>
			<stop  offset="1" style="stop-color:#AC8B42"/>
		</linearGradient>
		<path class="st21" d="M35.4,18h8.4v2.7c-1.2,2.4-2,5-2.6,7.7c-0.4,1.9-0.7,3.5-0.9,5.5H37c0-2.2,1.4-7.1,2.3-9.2l1.5-3.8h-5.3V18z
			"/>
	</g>
</g>
</svg>
