<?xml version="1.0" encoding="utf-8"?>
<!-- Generator: Adobe Illustrator 21.1.0, SVG Export Plug-In . SVG Version: 6.00 Build 0)  -->
<!DOCTYPE svg PUBLIC "-//W3C//DTD SVG 1.0//EN" "http://www.w3.org/TR/2001/REC-SVG-20010904/DTD/svg10.dtd">
<svg version="1.0" xmlns="http://www.w3.org/2000/svg" xmlns:xlink="http://www.w3.org/1999/xlink" x="0px" y="0px"
	 viewBox="0 0 72 37.7" style="enable-background:new 0 0 72 37.7;" xml:space="preserve">
<style type="text/css">
	.st0{fill:url(#SVGID_1_);}
	.st1{fill:url(#SVGID_2_);}
	.st2{fill:url(#SVGID_3_);}
	.st3{fill:url(#SVGID_4_);}
	.st4{fill:url(#SVGID_5_);}
	.st5{fill:url(#SVGID_6_);}
	.st6{fill:url(#SVGID_7_);}
	.st7{fill:url(#SVGID_8_);}
	.st8{fill:url(#SVGID_9_);}
	.st9{fill:url(#SVGID_10_);}
	.st10{fill:url(#SVGID_11_);}
	.st11{fill:url(#SVGID_12_);}
	.st12{fill:url(#SVGID_13_);}
	.st13{fill:url(#SVGID_14_);}
	.st14{fill:url(#SVGID_15_);}
	.st15{fill:url(#SVGID_16_);}
	.st16{fill:url(#SVGID_17_);}
	.st17{fill:url(#SVGID_18_);}
	.st18{fill:url(#SVGID_19_);}
	.st19{fill:url(#SVGID_20_);}
	.st20{fill:url(#SVGID_21_);}
	.st21{fill:url(#SVGID_22_);}
	.st22{fill:url(#SVGID_23_);}
	.st23{fill:url(#SVGID_24_);}
	.st24{fill:url(#SVGID_25_);}
	.st25{fill:url(#SVGID_26_);}
	.st26{fill:url(#SVGID_27_);}
	.st27{fill:url(#SVGID_28_);}
	.st28{fill:url(#SVGID_29_);}
	.st29{fill:url(#SVGID_30_);}
	.st30{fill:url(#SVGID_31_);}
	.st31{fill:url(#SVGID_32_);}
	.st32{fill:url(#SVGID_33_);}
	.st33{fill:url(#SVGID_34_);}
	.st34{fill:url(#SVGID_35_);}
	.st35{fill:url(#SVGID_36_);}
	.st36{fill:url(#SVGID_37_);}
	.st37{fill:url(#SVGID_38_);}
	.st38{fill:url(#SVGID_39_);}
	.st39{fill:url(#SVGID_40_);}
	.st40{fill:url(#SVGID_41_);}
	.st41{fill:url(#SVGID_42_);}
	.st42{fill:url(#SVGID_43_);}
	.st43{fill:url(#SVGID_44_);}
	.st44{fill:url(#SVGID_45_);}
	.st45{fill:url(#SVGID_46_);}
	.st46{fill:url(#SVGID_47_);}
	.st47{fill:url(#SVGID_48_);}
	.st48{fill:url(#SVGID_49_);}
	.st49{fill:url(#SVGID_50_);}
	.st50{fill:url(#SVGID_51_);}
	.st51{fill:url(#SVGID_52_);}
	.st52{fill:url(#SVGID_53_);}
	.st53{fill:url(#SVGID_54_);}
	.st54{fill:url(#SVGID_55_);}
	.st55{fill:url(#SVGID_56_);}
	.st56{fill:url(#SVGID_57_);}
	.st57{fill:url(#SVGID_58_);}
	.st58{fill:url(#SVGID_59_);}
	.st59{fill:url(#SVGID_60_);}
	.st60{fill:url(#SVGID_61_);}
	.st61{fill:url(#SVGID_62_);}
	.st62{fill:url(#SVGID_63_);}
	.st63{fill:url(#SVGID_64_);}
</style>
<g id="Layer_1">
</g>
<g id="Layer_2">
	<g>
		<g>
			<linearGradient id="SVGID_1_" gradientUnits="userSpaceOnUse" x1="26.3592" y1="37.6822" x2="26.3592" y2="0">
				<stop  offset="0" style="stop-color:#AC8B42"/>
				<stop  offset="0.5" style="stop-color:#D5C99C"/>
				<stop  offset="1" style="stop-color:#AC8B42"/>
			</linearGradient>
			<rect x="24.8" y="0" class="st0" width="3.1" height="37.7"/>
			<rect y="0" width="25.3" height="37.7"/>
			<polygon points="27.5,37.7 27.5,0 56.8,0 70.6,15.8 63.7,37.7 			"/>
			<g>
				<linearGradient id="SVGID_2_" gradientUnits="userSpaceOnUse" x1="32.6869" y1="22.8676" x2="32.6869" y2="13.5694">
					<stop  offset="0" style="stop-color:#AC8B42"/>
					<stop  offset="0.5" style="stop-color:#D5C99C"/>
					<stop  offset="1" style="stop-color:#AC8B42"/>
				</linearGradient>
				<path class="st1" d="M32,19.7v0.6c0,0.5,0.1,1,0.7,1c0.4,0,0.6-0.4,0.6-0.9c0-0.7-0.6-1-1-1.4c-0.6-0.4-1.1-0.7-1.4-1.2
					c-0.3-0.4-0.5-1-0.5-1.8c0-1.7,0.9-2.5,2.4-2.5c1.6,0,2.5,1.2,2.4,2.9h-1.7c0-0.5,0-1.2-0.6-1.3c-0.4,0-0.6,0.2-0.6,0.6
					c-0.1,0.5,0.2,0.8,0.6,1.1c0.7,0.5,1.3,0.8,1.7,1.3c0.4,0.4,0.7,1,0.7,2.1c0,1.7-0.9,2.6-2.4,2.6c-1.7,0-2.4-1.1-2.4-2.2v-0.9
					H32z"/>
				<linearGradient id="SVGID_3_" gradientUnits="userSpaceOnUse" x1="38.3841" y1="22.6549" x2="38.3841" y2="13.7822">
					<stop  offset="0" style="stop-color:#AC8B42"/>
					<stop  offset="0.5" style="stop-color:#D5C99C"/>
					<stop  offset="1" style="stop-color:#AC8B42"/>
				</linearGradient>
				<path class="st2" d="M35.5,22.7l1.7-8.9h2.3l1.7,8.9h-1.9l-0.3-1.7h-1.5l-0.2,1.7H35.5z M38.4,15.4L38.4,15.4l-0.6,4h1.1
					L38.4,15.4z"/>
				<linearGradient id="SVGID_4_" gradientUnits="userSpaceOnUse" x1="44.1717" y1="22.6549" x2="44.1717" y2="13.7822">
					<stop  offset="0" style="stop-color:#AC8B42"/>
					<stop  offset="0.5" style="stop-color:#D5C99C"/>
					<stop  offset="1" style="stop-color:#AC8B42"/>
				</linearGradient>
				<polygon class="st3" points="42,22.7 42,13.8 46.4,13.8 46.4,15.6 43.8,15.6 43.8,17.1 46.2,17.1 46.2,18.9 43.8,18.9 
					43.8,22.7 				"/>
				<linearGradient id="SVGID_5_" gradientUnits="userSpaceOnUse" x1="49.6825" y1="22.6549" x2="49.6825" y2="13.7822">
					<stop  offset="0" style="stop-color:#AC8B42"/>
					<stop  offset="0.5" style="stop-color:#D5C99C"/>
					<stop  offset="1" style="stop-color:#AC8B42"/>
				</linearGradient>
				<polygon class="st4" points="47.5,22.7 47.5,13.8 51.8,13.8 51.8,15.6 49.3,15.6 49.3,17.2 51.7,17.2 51.7,19 49.3,19 
					49.3,20.9 51.9,20.9 51.9,22.7 				"/>
				<linearGradient id="SVGID_6_" gradientUnits="userSpaceOnUse" x1="54.9694" y1="22.6549" x2="54.9694" y2="13.7822">
					<stop  offset="0" style="stop-color:#AC8B42"/>
					<stop  offset="0.5" style="stop-color:#D5C99C"/>
					<stop  offset="1" style="stop-color:#AC8B42"/>
				</linearGradient>
				<polygon class="st5" points="52.5,13.8 57.4,13.8 57.4,15.6 55.9,15.6 55.9,22.7 54,22.7 54,15.6 52.5,15.6 				"/>
				<linearGradient id="SVGID_7_" gradientUnits="userSpaceOnUse" x1="60.8049" y1="22.6549" x2="60.8049" y2="13.7822">
					<stop  offset="0" style="stop-color:#AC8B42"/>
					<stop  offset="0.5" style="stop-color:#D5C99C"/>
					<stop  offset="1" style="stop-color:#AC8B42"/>
				</linearGradient>
				<polygon class="st6" points="60.8,16.7 60.8,16.7 61.8,13.8 63.6,13.8 61.7,18.9 61.7,22.7 59.8,22.7 59.8,18.9 58,13.8 
					59.9,13.8 				"/>
				<linearGradient id="SVGID_8_" gradientUnits="userSpaceOnUse" x1="38.4146" y1="12.4865" x2="38.4146" y2="3.6131">
					<stop  offset="0" style="stop-color:#AC8B42"/>
					<stop  offset="0.5" style="stop-color:#D5C99C"/>
					<stop  offset="1" style="stop-color:#AC8B42"/>
				</linearGradient>
				<polygon class="st7" points="36,3.6 40.8,3.6 40.8,5.4 39.3,5.4 39.3,12.5 37.5,12.5 37.5,5.4 36,5.4 				"/>
				<linearGradient id="SVGID_9_" gradientUnits="userSpaceOnUse" x1="43.9359" y1="12.6985" x2="43.9359" y2="3.4003">
					<stop  offset="0" style="stop-color:#AC8B42"/>
					<stop  offset="0.5" style="stop-color:#D5C99C"/>
					<stop  offset="1" style="stop-color:#AC8B42"/>
				</linearGradient>
				<path class="st8" d="M46.5,9.7c0,2-0.6,3-2.5,3c-1.9,0-2.6-1-2.6-3V6.1c0-1.7,0.9-2.7,2.6-2.7c1.6,0,2.5,0.9,2.5,2.7V9.7z
					 M44.6,6.2c0-0.5,0-1.2-0.7-1.2c-0.6,0-0.7,0.7-0.7,1.2v3.6c0,0.5,0.1,1.3,0.7,1.3s0.6-0.8,0.6-1.3V6.2z"/>
				<linearGradient id="SVGID_10_" gradientUnits="userSpaceOnUse" x1="49.9738" y1="12.4865" x2="49.9738" y2="3.6131">
					<stop  offset="0" style="stop-color:#AC8B42"/>
					<stop  offset="0.5" style="stop-color:#D5C99C"/>
					<stop  offset="1" style="stop-color:#AC8B42"/>
				</linearGradient>
				<path class="st9" d="M47.5,12.5V3.6h2.2c0.7,0,1.8,0.1,2.3,0.7c0.4,0.5,0.5,1.2,0.5,1.9c0,1-0.2,2-1.1,2.5C50.8,9.1,50,9,49.3,9
					v3.5H47.5z M49.3,7.4c0.4,0,0.8,0,1.1-0.2c0.2-0.2,0.2-0.6,0.2-0.9c0-0.3,0-0.9-0.4-1c-0.2-0.1-0.4-0.1-0.7-0.1h-0.2V7.4z"/>
				<linearGradient id="SVGID_11_" gradientUnits="userSpaceOnUse" x1="36.6959" y1="34.0397" x2="36.6959" y2="23.9293">
					<stop  offset="0" style="stop-color:#AC8B42"/>
					<stop  offset="0.5" style="stop-color:#D5C99C"/>
					<stop  offset="1" style="stop-color:#AC8B42"/>
				</linearGradient>
				<path class="st10" d="M33.3,34l1.9-10.1h2.4c0.7,0,1.6,0.1,2,0.7c0.4,0.6,0.5,1.3,0.3,2.2c-0.2,1.1-0.7,2.2-1.8,2.7
					c-0.7,0.3-1.7,0.3-2.4,0.3h-0.6L34.3,34H33.3z M35.4,28.7h1c1.4,0,2.3-0.2,2.6-2c0.3-1.6-0.6-1.9-1.8-1.8h-1L35.4,28.7z"/>
				<linearGradient id="SVGID_12_" gradientUnits="userSpaceOnUse" x1="40.9614" y1="34.0397" x2="40.9614" y2="23.9293">
					<stop  offset="0" style="stop-color:#AC8B42"/>
					<stop  offset="0.5" style="stop-color:#D5C99C"/>
					<stop  offset="1" style="stop-color:#AC8B42"/>
				</linearGradient>
				<polygon class="st11" points="39.5,34 41.4,23.9 42.4,23.9 40.5,34 				"/>
				<linearGradient id="SVGID_13_" gradientUnits="userSpaceOnUse" x1="45.3686" y1="34.2818" x2="45.3686" y2="23.7276">
					<stop  offset="0" style="stop-color:#AC8B42"/>
					<stop  offset="0.5" style="stop-color:#D5C99C"/>
					<stop  offset="1" style="stop-color:#AC8B42"/>
				</linearGradient>
				<path class="st12" d="M47.4,27c0.2-1.2,0-2.2-1.2-2.2c-1.7,0-2.3,2.8-2.6,4.1c-0.3,1.4-0.9,4.4,0.9,4.4c1.2,0,1.7-1.1,2-2.2
					c0.1-0.2,0.1-0.5,0.2-0.7h1c-0.1,0.2-0.1,0.4-0.2,0.6c-0.2,0.8-0.4,1.4-0.9,2.1c-0.6,0.7-1.3,1.1-2.2,1.1c-2.8,0-2.3-3-1.9-5.4
					c0.4-2.3,1.3-5.1,3.9-5.1c1.7,0,2.3,1.4,2,3.2H47.4z"/>
				<linearGradient id="SVGID_14_" gradientUnits="userSpaceOnUse" x1="52.048" y1="34.0397" x2="52.048" y2="23.9293">
					<stop  offset="0" style="stop-color:#AC8B42"/>
					<stop  offset="0.5" style="stop-color:#D5C99C"/>
					<stop  offset="1" style="stop-color:#AC8B42"/>
				</linearGradient>
				<polygon class="st13" points="48.3,34 50.2,23.9 51.2,23.9 50.2,29.1 50.3,29.1 54.5,23.9 55.8,23.9 52.1,28.2 54,34 52.7,34 
					51.2,29.2 50,30.5 49.3,34 				"/>
			</g>
		</g>
		<g>
			<g>
				<g>
					<g>
						<g>
							<g>
								<linearGradient id="SVGID_15_" gradientUnits="userSpaceOnUse" x1="5.0406" y1="28.4376" x2="5.0406" y2="18.6248">
									<stop  offset="0" style="stop-color:#AC8B42"/>
									<stop  offset="0.5" style="stop-color:#D5C99C"/>
									<stop  offset="1" style="stop-color:#AC8B42"/>
								</linearGradient>
								<path class="st14" d="M4,28.4v-9.8h2.1v9.8H4z"/>
								<linearGradient id="SVGID_16_" gradientUnits="userSpaceOnUse" x1="8.312" y1="28.4376" x2="8.312" y2="18.6248">
									<stop  offset="0" style="stop-color:#AC8B42"/>
									<stop  offset="0.5" style="stop-color:#D5C99C"/>
									<stop  offset="1" style="stop-color:#AC8B42"/>
								</linearGradient>
								<path class="st15" d="M7.3,28.4v-9.8h2.1v9.8H7.3z"/>
								<linearGradient id="SVGID_17_" gradientUnits="userSpaceOnUse" x1="13.2254" y1="28.4376" x2="13.2254" y2="18.6248">
									<stop  offset="0" style="stop-color:#AC8B42"/>
									<stop  offset="0.5" style="stop-color:#D5C99C"/>
									<stop  offset="1" style="stop-color:#AC8B42"/>
								</linearGradient>
								<path class="st16" d="M10.4,28.4l0-9.8h2.1v3.8l1.4,0l0-3.8H16l0,9.8h-2.1l0-4.1l-1.4,0v4.1H10.4z"/>
								<linearGradient id="SVGID_18_" gradientUnits="userSpaceOnUse" x1="19.3642" y1="28.6968" x2="19.3642" y2="18.414">
									<stop  offset="0" style="stop-color:#AC8B42"/>
									<stop  offset="0.5" style="stop-color:#D5C99C"/>
									<stop  offset="1" style="stop-color:#AC8B42"/>
								</linearGradient>
								<path class="st17" d="M18.6,25.2l0,0.7c0,0.6,0.2,1.1,0.8,1.1c0.5,0,0.7-0.5,0.7-1c0-0.8-0.6-1.1-1.2-1.5
									c-0.6-0.4-1.2-0.8-1.6-1.3c-0.4-0.5-0.6-1.1-0.6-2c0-1.8,1-2.8,2.6-2.8c1.8,0,2.7,1.3,2.6,3.2l-1.9,0c0-0.6,0-1.4-0.7-1.4
									c-0.4,0-0.7,0.2-0.7,0.7c-0.1,0.6,0.2,0.9,0.6,1.2c0.8,0.6,1.4,0.9,1.9,1.4c0.5,0.5,0.8,1.2,0.8,2.3c0,1.9-0.9,2.9-2.7,2.9
									c-1.9,0-2.7-1.2-2.7-2.5l0-1L18.6,25.2z"/>
							</g>
						</g>
					</g>
				</g>
			</g>
		</g>
	</g>
	<g>
		<linearGradient id="SVGID_19_" gradientUnits="userSpaceOnUse" x1="6.1794" y1="16.9916" x2="6.1794" y2="8.8595">
			<stop  offset="0" style="stop-color:#AC8B42"/>
			<stop  offset="0.5" style="stop-color:#D5C99C"/>
			<stop  offset="1" style="stop-color:#AC8B42"/>
		</linearGradient>
		<path class="st18" d="M4,11.8v-0.4c0-1.6,0.8-2.5,2.2-2.5c1.3,0,2.1,0.7,2.1,2.2c0,1-0.3,1.6-0.9,2.3l-0.6,0.7
			c-0.3,0.3-0.9,1-1,1.4h2.5V17H4v-0.3c0-1.3,0.8-2.5,1.5-3.5l0.7-0.9C6.6,12,6.7,11.6,6.7,11c0-0.4-0.2-0.8-0.6-0.8
			c-0.5,0-0.6,0.8-0.6,1.2v0.4H4z"/>
		<linearGradient id="SVGID_20_" gradientUnits="userSpaceOnUse" x1="11.1817" y1="17.1868" x2="11.1817" y2="8.8595">
			<stop  offset="0" style="stop-color:#AC8B42"/>
			<stop  offset="0.5" style="stop-color:#D5C99C"/>
			<stop  offset="1" style="stop-color:#AC8B42"/>
		</linearGradient>
		<path class="st19" d="M9,11.2c0-1.6,0.8-2.3,2.2-2.3c1.8,0,2.2,0.9,2.2,2.8v2.9c0,1.8-0.5,2.6-2.2,2.6c-1.4,0-2.2-0.7-2.2-2.2
			V11.2z M11.7,11.2c0-0.1,0.1-0.9-0.5-0.9c-0.5,0-0.5,0.5-0.5,0.9v3.7c0,0.5,0,1,0.5,1c0.6,0,0.5-0.7,0.5-1V11.2z"/>
		<linearGradient id="SVGID_21_" gradientUnits="userSpaceOnUse" x1="15.4069" y1="16.9916" x2="15.4069" y2="9.033">
			<stop  offset="0" style="stop-color:#AC8B42"/>
			<stop  offset="0.5" style="stop-color:#D5C99C"/>
			<stop  offset="1" style="stop-color:#AC8B42"/>
		</linearGradient>
		<path class="st20" d="M15.4,11.5h-1.5v-1.2c0.8,0,1.8-0.3,1.9-1.2h1.1v8h-1.6V11.5z"/>
		<linearGradient id="SVGID_22_" gradientUnits="userSpaceOnUse" x1="19.8668" y1="16.9916" x2="19.8668" y2="9.033">
			<stop  offset="0" style="stop-color:#AC8B42"/>
			<stop  offset="0.5" style="stop-color:#D5C99C"/>
			<stop  offset="1" style="stop-color:#AC8B42"/>
		</linearGradient>
		<path class="st21" d="M17.8,9H22v1.4c-0.6,1.2-1,2.5-1.3,3.9c-0.2,0.9-0.3,1.8-0.4,2.7h-1.7c0-1.1,0.7-3.6,1.1-4.6l0.8-1.9h-2.7V9
			z"/>
	</g>
</g>
</svg>
