<?xml version="1.0" encoding="utf-8"?>
<!-- Generator: Adobe Illustrator 21.1.0, SVG Export Plug-In . SVG Version: 6.00 Build 0)  -->
<!DOCTYPE svg PUBLIC "-//W3C//DTD SVG 1.0//EN" "http://www.w3.org/TR/2001/REC-SVG-20010904/DTD/svg10.dtd">
<svg version="1.0" xmlns="http://www.w3.org/2000/svg" xmlns:xlink="http://www.w3.org/1999/xlink" x="0px" y="0px"
	 viewBox="0 0 72 47" style="enable-background:new 0 0 72 47;" xml:space="preserve">
<style type="text/css">
	.st0{fill:url(#SVGID_1_);}
	.st1{fill:url(#SVGID_2_);}
	.st2{fill:url(#SVGID_3_);}
	.st3{fill:url(#SVGID_4_);}
	.st4{fill:url(#SVGID_5_);}
	.st5{fill:url(#SVGID_6_);}
	.st6{fill:url(#SVGID_7_);}
	.st7{fill:url(#SVGID_8_);}
	.st8{fill:url(#SVGID_9_);}
	.st9{fill:url(#SVGID_10_);}
	.st10{fill:url(#SVGID_11_);}
	.st11{fill:url(#SVGID_12_);}
	.st12{fill:url(#SVGID_13_);}
	.st13{fill:url(#SVGID_14_);}
	.st14{fill:url(#SVGID_15_);}
	.st15{fill:url(#SVGID_16_);}
	.st16{fill:url(#SVGID_17_);}
	.st17{fill:url(#SVGID_18_);}
	.st18{fill:url(#SVGID_19_);}
	.st19{fill:url(#SVGID_20_);}
	.st20{fill:url(#SVGID_21_);}
	.st21{fill:url(#SVGID_22_);}
	.st22{fill:url(#SVGID_23_);}
	.st23{fill:url(#SVGID_24_);}
	.st24{fill:url(#SVGID_25_);}
	.st25{fill:url(#SVGID_26_);}
	.st26{fill:url(#SVGID_27_);}
	.st27{fill:url(#SVGID_28_);}
	.st28{fill:url(#SVGID_29_);}
	.st29{fill:url(#SVGID_30_);}
	.st30{fill:url(#SVGID_31_);}
	.st31{fill:url(#SVGID_32_);}
	.st32{fill:url(#SVGID_33_);}
	.st33{fill:url(#SVGID_34_);}
	.st34{fill:url(#SVGID_35_);}
	.st35{fill:url(#SVGID_36_);}
	.st36{fill:url(#SVGID_37_);}
	.st37{fill:url(#SVGID_38_);}
	.st38{fill:url(#SVGID_39_);}
	.st39{fill:url(#SVGID_40_);}
	.st40{fill:url(#SVGID_41_);}
	.st41{fill:url(#SVGID_42_);}
	.st42{fill:url(#SVGID_43_);}
	.st43{fill:url(#SVGID_44_);}
	.st44{fill:url(#SVGID_45_);}
	.st45{fill:url(#SVGID_46_);}
	.st46{fill:url(#SVGID_47_);}
	.st47{fill:url(#SVGID_48_);}
	.st48{fill:url(#SVGID_49_);}
	.st49{fill:url(#SVGID_50_);}
	.st50{fill:url(#SVGID_51_);}
	.st51{fill:url(#SVGID_52_);}
	.st52{fill:url(#SVGID_53_);}
	.st53{fill:url(#SVGID_54_);}
	.st54{fill:url(#SVGID_55_);}
	.st55{fill:url(#SVGID_56_);}
	.st56{fill:url(#SVGID_57_);}
	.st57{fill:url(#SVGID_58_);}
	.st58{fill:url(#SVGID_59_);}
	.st59{fill:url(#SVGID_60_);}
	.st60{fill:url(#SVGID_61_);}
	.st61{fill:url(#SVGID_62_);}
	.st62{fill:url(#SVGID_63_);}
	.st63{fill:url(#SVGID_64_);}
</style>
<g id="Layer_1">
	<g>
		<polygon points="0,47 0,0 54.7,0 72,19.7 63.4,47 		"/>
		<g>
			<g>
				<g>
					<linearGradient id="SVGID_1_" gradientUnits="userSpaceOnUse" x1="15.8235" y1="35.5029" x2="15.8235" y2="11.6767">
						<stop  offset="0" style="stop-color:#AC8B42"/>
						<stop  offset="0.5" style="stop-color:#D5C99C"/>
						<stop  offset="1" style="stop-color:#AC8B42"/>
					</linearGradient>
					<path class="st0" d="M9.3,11.7h13v4.8h-4.1v19.1h-5V16.4H9.3V11.7z"/>
					<linearGradient id="SVGID_2_" gradientUnits="userSpaceOnUse" x1="30.2183" y1="36.0752" x2="30.2183" y2="11.1045">
						<stop  offset="0" style="stop-color:#AC8B42"/>
						<stop  offset="0.5" style="stop-color:#D5C99C"/>
						<stop  offset="1" style="stop-color:#AC8B42"/>
					</linearGradient>
					<path class="st1" d="M28.4,27.5v1.7c0,1.4,0.4,2.6,2,2.6c1.2,0,1.7-1.2,1.7-2.4c0-2-1.5-2.8-2.8-3.7c-1.5-1-2.9-1.9-3.8-3.1
						C24.5,21.4,24,20,24,17.9c0-4.5,2.4-6.8,6.3-6.8c4.4,0,6.6,3.2,6.4,7.7h-4.6c-0.1-1.4,0-3.3-1.7-3.4c-1-0.1-1.6,0.5-1.7,1.6
						c-0.1,1.4,0.5,2.2,1.5,2.9c1.9,1.3,3.5,2.2,4.7,3.4c1.2,1.2,1.9,2.8,1.9,5.7c0,4.6-2.3,7.1-6.5,7.1c-4.6,0-6.5-2.9-6.5-6v-2.5
						H28.4z"/>
					<linearGradient id="SVGID_3_" gradientUnits="userSpaceOnUse" x1="46.6856" y1="35.5029" x2="46.6856" y2="11.6767">
						<stop  offset="0" style="stop-color:#AC8B42"/>
						<stop  offset="0.5" style="stop-color:#D5C99C"/>
						<stop  offset="1" style="stop-color:#AC8B42"/>
					</linearGradient>
					<path class="st2" d="M39.9,35.5V11.7h6c1.9,0,4.7,0.2,6.1,2c1.2,1.5,1.4,3.2,1.4,5.2c0,2.6-0.5,5.5-2.8,6.6
						c-1.7,1-3.8,0.7-5.7,0.8v9.3H39.9z M45,21.9c0.9,0,2,0.1,2.8-0.6c0.5-0.6,0.6-1.6,0.6-2.4c0-0.9-0.1-2.3-0.9-2.8
						C47,16,46.3,16,45.5,16H45V21.9z"/>
				</g>
			</g>
		</g>
	</g>
</g>
<g id="Layer_2">
</g>
</svg>
