<?xml version="1.0" encoding="utf-8"?>
<!-- Generator: Adobe Illustrator 21.1.0, SVG Export Plug-In . SVG Version: 6.00 Build 0)  -->
<!DOCTYPE svg PUBLIC "-//W3C//DTD SVG 1.0//EN" "http://www.w3.org/TR/2001/REC-SVG-20010904/DTD/svg10.dtd">
<svg version="1.0" xmlns="http://www.w3.org/2000/svg" xmlns:xlink="http://www.w3.org/1999/xlink" x="0px" y="0px"
	 viewBox="0 0 50 32.6" style="enable-background:new 0 0 50 32.6;" xml:space="preserve">
<style type="text/css">
	.st0{fill:url(#SVGID_1_);}
	.st1{fill:url(#SVGID_2_);}
	.st2{fill:url(#SVGID_3_);}
	.st3{fill:url(#SVGID_4_);}
	.st4{fill:url(#SVGID_5_);}
	.st5{fill:url(#SVGID_6_);}
	.st6{fill:url(#SVGID_7_);}
	.st7{fill:url(#SVGID_8_);}
	.st8{fill:url(#SVGID_9_);}
	.st9{fill:url(#SVGID_10_);}
	.st10{fill:url(#SVGID_11_);}
	.st11{fill:url(#SVGID_12_);}
	.st12{fill:url(#SVGID_13_);}
	.st13{fill:url(#SVGID_14_);}
	.st14{fill:url(#SVGID_15_);}
	.st15{fill:url(#SVGID_16_);}
	.st16{fill:url(#SVGID_17_);}
	.st17{fill:url(#SVGID_18_);}
	.st18{fill:url(#SVGID_19_);}
	.st19{fill:url(#SVGID_20_);}
	.st20{fill:url(#SVGID_21_);}
	.st21{fill:url(#SVGID_22_);}
	.st22{fill:url(#SVGID_23_);}
	.st23{fill:url(#SVGID_24_);}
	.st24{fill:url(#SVGID_25_);}
	.st25{fill:url(#SVGID_26_);}
	.st26{fill:url(#SVGID_27_);}
	.st27{fill:url(#SVGID_28_);}
	.st28{fill:url(#SVGID_29_);}
	.st29{fill:url(#SVGID_30_);}
	.st30{fill:url(#SVGID_31_);}
	.st31{fill:url(#SVGID_32_);}
	.st32{fill:url(#SVGID_33_);}
	.st33{fill:url(#SVGID_34_);}
	.st34{fill:url(#SVGID_35_);}
	.st35{fill:url(#SVGID_36_);}
	.st36{fill:url(#SVGID_37_);}
	.st37{fill:url(#SVGID_38_);}
	.st38{fill:url(#SVGID_39_);}
	.st39{fill:url(#SVGID_40_);}
	.st40{fill:url(#SVGID_41_);}
	.st41{fill:url(#SVGID_42_);}
	.st42{fill:url(#SVGID_43_);}
	.st43{fill:url(#SVGID_44_);}
	.st44{fill:url(#SVGID_45_);}
	.st45{fill:url(#SVGID_46_);}
	.st46{fill:url(#SVGID_47_);}
	.st47{fill:url(#SVGID_48_);}
	.st48{fill:url(#SVGID_49_);}
	.st49{fill:url(#SVGID_50_);}
	.st50{fill:url(#SVGID_51_);}
	.st51{fill:url(#SVGID_52_);}
	.st52{fill:url(#SVGID_53_);}
	.st53{fill:url(#SVGID_54_);}
	.st54{fill:url(#SVGID_55_);}
	.st55{fill:url(#SVGID_56_);}
	.st56{fill:url(#SVGID_57_);}
	.st57{fill:url(#SVGID_58_);}
	.st58{fill:url(#SVGID_59_);}
	.st59{fill:url(#SVGID_60_);}
	.st60{fill:url(#SVGID_61_);}
	.st61{fill:url(#SVGID_62_);}
	.st62{fill:url(#SVGID_63_);}
	.st63{fill:url(#SVGID_64_);}
</style>
<g id="Layer_1">
	<g>
		<polygon points="-0.2,32.8 -0.2,-0.1 36.6,-0.1 48.7,13.7 42.7,32.8 		"/>
		<g>
			<g>
				<g>
					<linearGradient id="SVGID_1_" gradientUnits="userSpaceOnUse" x1="9.34" y1="24.7442" x2="9.34" y2="8.0565">
						<stop  offset="0" style="stop-color:#AC8B42"/>
						<stop  offset="0.5" style="stop-color:#D5C99C"/>
						<stop  offset="1" style="stop-color:#AC8B42"/>
					</linearGradient>
					<path class="st0" d="M4.8,8.1h9.1v3.3h-2.8v13.4H7.5V11.4H4.8V8.1z"/>
					<linearGradient id="SVGID_2_" gradientUnits="userSpaceOnUse" x1="19.422" y1="25.1451" x2="19.422" y2="7.6558">
						<stop  offset="0" style="stop-color:#AC8B42"/>
						<stop  offset="0.5" style="stop-color:#D5C99C"/>
						<stop  offset="1" style="stop-color:#AC8B42"/>
					</linearGradient>
					<path class="st1" d="M18.1,19.2v1.2c0,1,0.3,1.8,1.4,1.8c0.8,0,1.2-0.8,1.2-1.7c0-1.4-1-1.9-2-2.6c-1.1-0.7-2-1.3-2.7-2.2
						c-0.6-0.8-1-1.9-1-3.3c0-3.1,1.7-4.7,4.4-4.7c3.1,0,4.6,2.3,4.5,5.4h-3.2c0-1,0-2.3-1.2-2.4c-0.7-0.1-1.1,0.4-1.2,1.1
						c-0.1,1,0.4,1.5,1.1,2c1.3,0.9,2.5,1.5,3.3,2.4c0.8,0.8,1.3,2,1.3,4c0,3.2-1.6,5-4.5,5c-3.2,0-4.6-2-4.6-4.2v-1.8H18.1z"/>
					<linearGradient id="SVGID_3_" gradientUnits="userSpaceOnUse" x1="30.9556" y1="24.7442" x2="30.9556" y2="8.0565">
						<stop  offset="0" style="stop-color:#AC8B42"/>
						<stop  offset="0.5" style="stop-color:#D5C99C"/>
						<stop  offset="1" style="stop-color:#AC8B42"/>
					</linearGradient>
					<path class="st2" d="M26.2,24.7V8.1h4.2c1.4,0,3.3,0.1,4.3,1.4c0.8,1,1,2.3,1,3.6c0,1.8-0.4,3.8-2,4.7c-1.2,0.7-2.6,0.5-4,0.5
						v6.5H26.2z M29.7,15.2c0.7,0,1.4,0.1,2-0.4c0.4-0.4,0.4-1.1,0.4-1.7c0-0.6-0.1-1.6-0.7-1.9c-0.3-0.1-0.8-0.1-1.4-0.1h-0.4V15.2
						z"/>
				</g>
			</g>
		</g>
	</g>
</g>
<g id="Layer_2">
</g>
</svg>
