<?xml version="1.0" encoding="UTF-8" standalone="no"?>
<!-- Generator: Adobe Illustrator 18.1.1, SVG Export Plug-In . SVG Version: 6.00 Build 0)  -->

<svg
   xmlns:dc="http://purl.org/dc/elements/1.1/"
   xmlns:cc="http://creativecommons.org/ns#"
   xmlns:rdf="http://www.w3.org/1999/02/22-rdf-syntax-ns#"
   xmlns:svg="http://www.w3.org/2000/svg"
   xmlns="http://www.w3.org/2000/svg"
   xmlns:sodipodi="http://sodipodi.sourceforge.net/DTD/sodipodi-0.dtd"
   xmlns:inkscape="http://www.inkscape.org/namespaces/inkscape"
   version="1.1"
   id="Layer_1"
   x="0px"
   y="0px"
   width="200"
   height="200"
   viewBox="0 0 199.99999 200"
   enable-background="new 0 0 294.114 90"
   xml:space="preserve"
   sodipodi:docname="logoiihs.svg"
   inkscape:version="0.92.1 r15371"><metadata
     id="metadata147"><rdf:RDF><cc:Work
         rdf:about=""><dc:format>image/svg+xml</dc:format><dc:type
           rdf:resource="http://purl.org/dc/dcmitype/StillImage" /><dc:title></dc:title></cc:Work></rdf:RDF></metadata><defs
     id="defs145" /><sodipodi:namedview
     pagecolor="#ffffff"
     bordercolor="#666666"
     borderopacity="1"
     objecttolerance="10"
     gridtolerance="10"
     guidetolerance="10"
     inkscape:pageopacity="0"
     inkscape:pageshadow="2"
     inkscape:window-width="1920"
     inkscape:window-height="1137"
     id="namedview143"
     showgrid="true"
     inkscape:snap-midpoints="false"
     inkscape:zoom="3.14"
     inkscape:cx="103.51753"
     inkscape:cy="106.10657"
     inkscape:window-x="1912"
     inkscape:window-y="-8"
     inkscape:window-maximized="1"
     inkscape:current-layer="Layer_1"><inkscape:grid
       type="xygrid"
       id="grid4093" /></sodipodi:namedview><g
     id="g4138"
     transform="matrix(1.5625,0,0,1.5625,-98.116015,-32.864782)"><g
       transform="matrix(0.970299,0,0,0.970299,3.9167925,2.1908723)"
       id="g4079"><path
         d="m 71.197855,100.80308 h 1.253 v 10.165 h -1.253 z"
         id="path2"
         inkscape:connector-curvature="0"
         style="fill:#808285" /><path
         d="m 73.916855,103.33808 h 1.139 v 0.897 h 0.028 c 0.328,-0.698 1.111,-1.096 1.851,-1.096 2.007,0 2.007,1.509 2.007,2.42 v 5.41 h -1.196 v -5.268 c 0,-0.583 -0.043,-1.538 -1.125,-1.538 -0.641,0 -1.509,0.441 -1.509,1.538 v 5.268 h -1.196 v -7.631 z"
         id="path4"
         inkscape:connector-curvature="0"
         style="fill:#808285" /><path
         d="m 83.640855,105.57308 c 0,-0.968 -0.256,-1.495 -1.125,-1.495 -0.384,0 -1.238,0.1 -1.238,1.167 0,0.911 0.939,1.082 1.879,1.381 0.911,0.299 1.865,0.626 1.865,2.15 0,1.594 -1.04,2.392 -2.463,2.392 -2.591,0 -2.62,-1.922 -2.62,-2.705 h 1.196 c 0,0.925 0.242,1.765 1.424,1.765 0.384,0 1.267,-0.185 1.267,-1.267 0,-1.025 -0.954,-1.253 -1.865,-1.552 -0.925,-0.313 -1.879,-0.598 -1.879,-2.164 0,-1.423 1.111,-2.107 2.435,-2.107 2.221,0 2.321,1.538 2.321,2.435 z"
         id="path6"
         inkscape:connector-curvature="0"
         style="fill:#808285" /><path
         d="m 91.043855,110.96808 h -1.139 v -0.897 h -0.028 c -0.328,0.698 -1.11,1.096 -1.851,1.096 -2.007,0 -2.007,-1.509 -2.007,-2.42 v -5.41 h 1.196 v 5.268 c 0,0.583 0.042,1.538 1.125,1.538 0.641,0 1.509,-0.441 1.509,-1.538 v -5.268 h 1.196 v 7.631 z"
         id="path8"
         inkscape:connector-curvature="0"
         style="fill:#808285" /><path
         d="m 92.467855,103.33808 h 1.196 v 1.139 h 0.028 c 0.342,-0.726 0.783,-1.338 1.651,-1.338 0.242,0 0.413,0.028 0.527,0.085 v 1.167 c -0.114,-0.014 -0.256,-0.057 -0.641,-0.057 -0.598,0 -1.566,0.555 -1.566,1.808 v 4.826 h -1.196 v -7.63 z"
         id="path10"
         inkscape:connector-curvature="0"
         style="fill:#808285" /><path
         d="m 96.353855,105.64408 c 0,-1.723 0.74,-2.506 2.562,-2.506 2.319995,0 2.319995,1.395 2.319995,2.192 v 4.257 c 0,0.327 -0.014,0.612 0.37,0.612 0.157,0 0.228,-0.029 0.285,-0.071 v 0.854 c -0.1,0.014 -0.398,0.071 -0.697,0.071 -0.441,0 -1.04,0 -1.082,-0.982 h -0.029 c -0.383995,0.684 -1.109995,1.096 -1.835995,1.096 -1.423,0 -2.078,-0.854 -2.078,-2.221 0,-1.082 0.456,-1.808 1.438,-2.107 l 1.609,-0.484 c 0.882995,-0.271 0.867995,-0.526 0.867995,-1.153 0,-0.726 -0.426995,-1.125 -1.223995,-1.125 -1.31,0 -1.31,1.21 -1.31,1.495 v 0.071 h -1.196 z m 3.686995,1.167 c -0.469995,0.47 -1.494995,0.541 -2.035995,0.897 -0.385,0.242 -0.584,0.541 -0.584,1.21 0,0.783 0.271,1.31 1.082,1.31 0.797,0 1.537995,-0.655 1.537995,-1.452 z"
         id="path12"
         inkscape:connector-curvature="0"
         style="fill:#808285" /><path
         d="m 102.71785,103.33808 h 1.139 v 0.897 h 0.028 c 0.328,-0.698 1.111,-1.096 1.851,-1.096 2.007,0 2.007,1.509 2.007,2.42 v 5.41 h -1.196 v -5.268 c 0,-0.583 -0.043,-1.538 -1.125,-1.538 -0.641,0 -1.509,0.441 -1.509,1.538 v 5.268 h -1.196 v -7.631 z"
         id="path14"
         inkscape:connector-curvature="0"
         style="fill:#808285" /><path
         d="m 112.79685,105.65808 c 0,-0.74 -0.299,-1.581 -1.21,-1.581 -0.74,0 -1.495,0.37 -1.495,3.161 0,0.982 0.014,2.99 1.452,2.99 1.025,0 1.252,-1.082 1.252,-1.908 h 1.196 c 0,1.196 -0.598,2.847 -2.506,2.847 -1.879,0 -2.648,-1.281 -2.648,-3.915 0,-1.894 0.37,-4.114 2.719,-4.114 2.093,0 2.435,1.651 2.435,2.52 z"
         id="path16"
         inkscape:connector-curvature="0"
         style="fill:#808285" /><path
         d="m 116.08585,107.29608 c 0,1.182 0,2.933 1.466,2.933 1.139,0 1.295,-1.182 1.295,-1.765 h 1.196 c 0,0.811 -0.47,2.705 -2.562,2.705 -1.879,0 -2.648,-1.281 -2.648,-3.915 0,-1.894 0.37,-4.114 2.719,-4.114 2.334,0 2.548,2.021 2.548,3.673 v 0.484 h -4.014 z m 2.762,-0.94 v -0.413 c 0,-0.854 -0.256,-1.865 -1.324,-1.865 -1.252,0 -1.395,1.538 -1.395,1.993 v 0.285 z"
         id="path18"
         inkscape:connector-curvature="0"
         style="fill:#808285" /><path
         d="m 124.58485,100.80308 h 1.253 v 10.165 h -1.253 z"
         id="path20"
         inkscape:connector-curvature="0"
         style="fill:#808285" /><path
         d="m 127.30485,103.33808 h 1.139 v 0.897 h 0.028 c 0.328,-0.698 1.111,-1.096 1.851,-1.096 2.007,0 2.007,1.509 2.007,2.42 v 5.41 h -1.196 v -5.268 c 0,-0.583 -0.043,-1.538 -1.125,-1.538 -0.641,0 -1.509,0.441 -1.509,1.538 v 5.268 h -1.196 v -7.631 z"
         id="path22"
         inkscape:connector-curvature="0"
         style="fill:#808285" /><path
         d="m 137.02785,105.57308 c 0,-0.968 -0.256,-1.495 -1.125,-1.495 -0.384,0 -1.238,0.1 -1.238,1.167 0,0.911 0.939,1.082 1.879,1.381 0.911,0.299 1.865,0.626 1.865,2.15 0,1.594 -1.04,2.392 -2.463,2.392 -2.591,0 -2.62,-1.922 -2.62,-2.705 h 1.196 c 0,0.925 0.242,1.765 1.424,1.765 0.384,0 1.267,-0.185 1.267,-1.267 0,-1.025 -0.954,-1.253 -1.865,-1.552 -0.925,-0.313 -1.879,-0.598 -1.879,-2.164 0,-1.423 1.111,-2.107 2.435,-2.107 2.221,0 2.321,1.538 2.321,2.435 z"
         id="path24"
         inkscape:connector-curvature="0"
         style="fill:#808285" /><path
         d="m 139.76185,101.11708 h 1.196 v 2.221 h 1.324 v 0.94 h -1.324 v 4.897 c 0,0.612 0.156,0.854 0.783,0.854 0.271,0 0.398,-0.029 0.526,-0.043 v 0.982 c -0.156,0.042 -0.47,0.085 -0.968,0.085 -1.253,0 -1.538,-0.513 -1.538,-1.509 v -5.267 h -1.11 v -0.94 h 1.11 v -2.22 z"
         id="path26"
         inkscape:connector-curvature="0"
         style="fill:#808285" /><path
         d="m 143.02185,100.80308 h 1.195 v 1.367 h -1.195 z m 0,2.535 h 1.195 v 7.631 h -1.195 z"
         id="path28"
         inkscape:connector-curvature="0"
         style="fill:#808285" /><path
         d="m 146.06785,101.11708 h 1.196 v 2.221 h 1.324 v 0.94 h -1.324 v 4.897 c 0,0.612 0.156,0.854 0.783,0.854 0.271,0 0.398,-0.029 0.526,-0.043 v 0.982 c -0.156,0.042 -0.47,0.085 -0.968,0.085 -1.253,0 -1.538,-0.513 -1.538,-1.509 v -5.267 h -1.11 v -0.94 h 1.11 v -2.22 z"
         id="path30"
         inkscape:connector-curvature="0"
         style="fill:#808285" /><path
         d="m 154.28285,110.96808 h -1.139 v -0.897 h -0.029 c -0.327,0.698 -1.11,1.096 -1.851,1.096 -2.007,0 -2.007,-1.509 -2.007,-2.42 v -5.41 h 1.195 v 5.268 c 0,0.583 0.043,1.538 1.125,1.538 0.641,0 1.509,-0.441 1.509,-1.538 v -5.268 h 1.196 v 7.631 z"
         id="path32"
         inkscape:connector-curvature="0"
         style="fill:#808285" /><path
         d="m 156.06285,101.11708 h 1.196 v 2.221 h 1.324 v 0.94 h -1.324 v 4.897 c 0,0.612 0.156,0.854 0.783,0.854 0.271,0 0.398,-0.029 0.526,-0.043 v 0.982 c -0.156,0.042 -0.47,0.085 -0.968,0.085 -1.253,0 -1.538,-0.513 -1.538,-1.509 v -5.267 h -1.11 v -0.94 h 1.11 v -2.22 z"
         id="path34"
         inkscape:connector-curvature="0"
         style="fill:#808285" /><path
         d="m 160.24885,107.29608 c 0,1.182 0,2.933 1.467,2.933 1.139,0 1.295,-1.182 1.295,-1.765 h 1.196 c 0,0.811 -0.47,2.705 -2.562,2.705 -1.879,0 -2.648,-1.281 -2.648,-3.915 0,-1.894 0.37,-4.114 2.72,-4.114 2.335,0 2.548,2.021 2.548,3.673 v 0.484 h -4.016 z m 2.762,-0.94 v -0.413 c 0,-0.854 -0.256,-1.865 -1.323,-1.865 -1.253,0 -1.396,1.538 -1.396,1.993 v 0.285 z"
         id="path36"
         inkscape:connector-curvature="0"
         style="fill:#808285" /><path
         d="m 169.06085,104.27808 h -1.11 v -0.94 h 1.11 v -0.897 c 0,-1.153 0.498,-1.751 1.651,-1.751 h 0.869 v 1.025 h -0.556 c -0.513,0 -0.769,0.2 -0.769,0.726 v 0.897 h 1.31 v 0.94 h -1.31 v 6.691 h -1.196 v -6.691 z"
         id="path38"
         inkscape:connector-curvature="0"
         style="fill:#808285" /><path
         d="m 174.62785,103.13808 c 2.207,0 2.748,1.865 2.748,4.015 0,2.15 -0.556,4.015 -2.748,4.015 -2.206,0 -2.747,-1.865 -2.747,-4.015 0,-2.149 0.541,-4.015 2.747,-4.015 z m 1.495,4.015 c 0,-1.651 -0.228,-3.075 -1.523,-3.075 -1.21,0 -1.466,1.424 -1.466,3.075 0,1.651 0.241,3.075 1.466,3.075 1.267,0 1.523,-1.424 1.523,-3.075 z"
         id="path40"
         inkscape:connector-curvature="0"
         style="fill:#808285" /><path
         d="m 178.43085,103.33808 h 1.195 v 1.139 h 0.029 c 0.341,-0.726 0.782,-1.338 1.651,-1.338 0.241,0 0.412,0.028 0.526,0.085 v 1.167 c -0.114,-0.014 -0.256,-0.057 -0.641,-0.057 -0.598,0 -1.566,0.555 -1.566,1.808 v 4.826 h -1.195 v -7.63 z"
         id="path42"
         inkscape:connector-curvature="0"
         style="fill:#808285" /></g><g
       transform="matrix(0.970299,0,0,0.970299,3.8027843,-2.0703394)"
       id="g4020"><path
         d="m 77.308353,128.75766 h -1.253 v -4.897 h -3.488 v 4.897 h -1.252 v -10.165 h 1.252 v 4.157 h 3.488 v -4.157 h 1.253 z"
         id="path44"
         inkscape:connector-curvature="0"
         style="fill:#808285" /><path
         d="m 78.846353,118.59266 h 1.195 v 1.367 h -1.195 z m 0,2.535 h 1.195 v 7.631 h -1.195 z"
         id="path46"
         inkscape:connector-curvature="0"
         style="fill:#808285" /><path
         d="m 86.562353,128.27466 c 0,2.278 -1.067,3.104 -2.591,3.104 -0.47,0 -2.321,0 -2.506,-1.908 h 1.195 c 0.058,0.697 0.599,0.968 1.225,0.968 1.538,0 1.48,-1.182 1.48,-1.708 v -0.997 h -0.028 c -0.271,0.641 -0.968,1.025 -1.723,1.025 -2.221,0 -2.363,-2.805 -2.363,-3.815 0,-2.064 0.556,-4.015 2.491,-4.015 0.841,0 1.495,0.555 1.651,1.167 h 0.029 v -0.968 h 1.139 v 7.147 z m -4.057,-3.332 c 0,1.239 0.186,2.791 1.381,2.791 1.31,0 1.552,-1.225 1.552,-2.791 0,-1.48 -0.242,-2.99 -1.537,-2.99 -1.097,0 -1.396,1.168 -1.396,2.99 z"
         id="path48"
         inkscape:connector-curvature="0"
         style="fill:#808285" /><path
         d="m 87.986353,118.59266 h 1.195 v 3.403 h 0.029 c 0.312,-0.626 1.152,-1.068 1.836,-1.068 1.979,0 1.965,1.509 1.965,2.42 v 5.41 h -1.196 v -5.268 c 0,-0.583 -0.042,-1.538 -1.124,-1.538 -0.641,0 -1.51,0.441 -1.51,1.538 v 5.268 h -1.195 z"
         id="path50"
         inkscape:connector-curvature="0"
         style="fill:#808285" /><path
         d="m 93.795353,121.12766 h 1.253 l 1.224,6.236 h 0.029 l 1.295,-6.236 h 1.409 l 1.267997,6.236 h 0.028 l 1.182,-6.236 h 1.253 l -1.809,7.631 h -1.309997 l -1.338,-6.235 h -0.028 l -1.281,6.235 h -1.396 z"
         id="path52"
         inkscape:connector-curvature="0"
         style="fill:#808285" /><path
         d="m 103.33335,123.43366 c 0,-1.723 0.74,-2.506 2.562,-2.506 2.321,0 2.321,1.395 2.321,2.192 v 4.257 c 0,0.327 -0.015,0.612 0.37,0.612 0.156,0 0.228,-0.029 0.284,-0.071 v 0.854 c -0.1,0.014 -0.398,0.071 -0.697,0.071 -0.441,0 -1.039,0 -1.082,-0.982 h -0.028 c -0.385,0.684 -1.11,1.096 -1.837,1.096 -1.424,0 -2.078,-0.854 -2.078,-2.221 0,-1.082 0.455,-1.808 1.438,-2.107 l 1.608,-0.484 c 0.883,-0.271 0.869,-0.526 0.869,-1.153 0,-0.726 -0.428,-1.125 -1.225,-1.125 -1.31,0 -1.31,1.21 -1.31,1.495 v 0.071 h -1.195 z m 3.687,1.167 c -0.47,0.47 -1.495,0.541 -2.036,0.897 -0.384,0.242 -0.583,0.541 -0.583,1.21 0,0.783 0.271,1.31 1.082,1.31 0.797,0 1.537,-0.655 1.537,-1.452 z"
         id="path54"
         inkscape:connector-curvature="0"
         style="fill:#808285" /><path
         d="m 109.05635,121.12766 h 1.31 l 1.509,6.122 h 0.028 l 1.339,-6.122 h 1.31 l -2.207,8.144 c -0.299,1.053 -0.598,1.993 -2.035,1.993 -0.47,0 -0.655,-0.028 -0.869,-0.042 v -0.939 c 0.171,0.028 0.399,0.042 0.698,0.042 0.555,0 0.783,-0.327 0.939,-0.74 l 0.228,-0.669 z"
         id="path56"
         inkscape:connector-curvature="0"
         style="fill:#808285" /><path
         d="m 122.96735,121.22666 c 0,-1.067 -0.385,-1.808 -1.58,-1.808 -1.068,0 -1.681,0.57 -1.681,1.652 0,2.861 4.798,1.153 4.798,4.869 0,2.349 -1.723,3.018 -3.16,3.018 -2.378,0 -3.075,-1.224 -3.075,-3.388 h 1.253 c 0,1.139 0.085,2.363 1.907,2.363 0.997,0 1.766,-0.712 1.766,-1.794 0,-2.875 -4.798,-1.21 -4.798,-4.94 0,-0.939 0.398,-2.805 2.976,-2.805 1.95,0 2.805,0.954 2.848,2.833 z"
         id="path58"
         inkscape:connector-curvature="0"
         style="fill:#808285" /><path
         d="m 125.40035,123.43366 c 0,-1.723 0.74,-2.506 2.562,-2.506 2.321,0 2.321,1.395 2.321,2.192 v 4.257 c 0,0.327 -0.015,0.612 0.37,0.612 0.156,0 0.228,-0.029 0.284,-0.071 v 0.854 c -0.1,0.014 -0.398,0.071 -0.697,0.071 -0.441,0 -1.039,0 -1.082,-0.982 h -0.028 c -0.385,0.684 -1.11,1.096 -1.837,1.096 -1.424,0 -2.078,-0.854 -2.078,-2.221 0,-1.082 0.455,-1.808 1.438,-2.107 l 1.608,-0.484 c 0.883,-0.271 0.869,-0.526 0.869,-1.153 0,-0.726 -0.428,-1.125 -1.225,-1.125 -1.31,0 -1.31,1.21 -1.31,1.495 v 0.071 h -1.195 z m 3.688,1.167 c -0.47,0.47 -1.495,0.541 -2.036,0.897 -0.384,0.242 -0.583,0.541 -0.583,1.21 0,0.783 0.271,1.31 1.082,1.31 0.797,0 1.537,-0.655 1.537,-1.452 z"
         id="path60"
         inkscape:connector-curvature="0"
         style="fill:#808285" /><path
         d="m 132.12035,122.06766 h -1.11 v -0.94 h 1.11 v -0.897 c 0,-1.153 0.498,-1.751 1.651,-1.751 h 0.869 v 1.025 h -0.556 c -0.513,0 -0.769,0.2 -0.769,0.726 v 0.897 h 1.31 v 0.94 h -1.31 v 6.691 h -1.196 v -6.691 z"
         id="path62"
         inkscape:connector-curvature="0"
         style="fill:#808285" /><path
         d="m 136.02135,125.08566 c 0,1.182 0,2.933 1.467,2.933 1.139,0 1.295,-1.182 1.295,-1.765 h 1.196 c 0,0.811 -0.47,2.705 -2.562,2.705 -1.879,0 -2.648,-1.281 -2.648,-3.915 0,-1.894 0.37,-4.114 2.72,-4.114 2.335,0 2.548,2.021 2.548,3.673 v 0.484 h -4.016 z m 2.762,-0.94 v -0.413 c 0,-0.854 -0.256,-1.865 -1.323,-1.865 -1.253,0 -1.396,1.538 -1.396,1.993 v 0.285 z"
         id="path64"
         inkscape:connector-curvature="0"
         style="fill:#808285" /><path
         d="m 141.27535,118.90666 h 1.196 v 2.221 h 1.324 v 0.94 h -1.324 v 4.897 c 0,0.612 0.156,0.854 0.783,0.854 0.271,0 0.398,-0.029 0.526,-0.043 v 0.982 c -0.156,0.042 -0.47,0.085 -0.968,0.085 -1.253,0 -1.538,-0.513 -1.538,-1.509 v -5.267 h -1.11 v -0.94 h 1.11 v -2.22 z"
         id="path66"
         inkscape:connector-curvature="0"
         style="fill:#808285" /><path
         d="m 144.10835,121.12766 h 1.31 l 1.509,6.122 h 0.028 l 1.339,-6.122 h 1.31 l -2.207,8.144 c -0.299,1.053 -0.598,1.993 -2.035,1.993 -0.47,0 -0.655,-0.028 -0.869,-0.042 v -0.939 c 0.171,0.028 0.399,0.042 0.698,0.042 0.555,0 0.783,-0.327 0.939,-0.74 l 0.228,-0.669 z"
         id="path68"
         inkscape:connector-curvature="0"
         style="fill:#808285" /></g><g
       transform="matrix(1.1888878,0,0,1.1888878,73,44.067912)"
       id="g138"><g
         id="g132"><rect
           x="39.167"
           y="0.84200001"
           width="7.9100003"
           height="42.949001"
           id="rect120"
           style="fill:#ffcd33" /><path
           d="m 78.742,13.234 v -1.023 c 0,-2.586 -1.022,-4.631 -3.187,-4.631 -2.406,0 -3.489,1.864 -3.489,3.79 0,8.481 18.287,4.33 18.287,20.03 0,9.143 -5.353,13.234 -15.219,13.234 -9.263,0 -14.437,-3.188 -14.437,-12.091 v -1.504 h 10.828 v 1.022 c 0,3.67 1.504,4.993 3.669,4.993 2.346,0 3.61,-1.804 3.61,-4.151 0,-8.481 -17.565,-4.27 -17.565,-19.49 C 61.238,4.692 65.87,0 75.314,0 85.119,0 89.21,4.031 89.21,13.234 Z"
           id="path124"
           inkscape:connector-curvature="0" /><path
           d="m 47.077,0.842 v 15.76 H 40.22 V 0.842 H 29.031 V 43.791 H 58.266 V 0.842 Z m 0,42.949 H 40.22 V 26.106 h 6.857 z"
           id="path126"
           inkscape:connector-curvature="0"
           sodipodi:nodetypes="cccccccccccccc" /></g><path
         d="M 0,0.784 H 11.187 V 43.733 H 0 Z"
         id="path134"
         inkscape:connector-curvature="0" /><path
         d="M 14.414,0.784 H 25.601 V 43.733 H 14.414 Z"
         id="path136"
         inkscape:connector-curvature="0" /></g></g></svg>