<?xml version="1.0" encoding="UTF-8" standalone="no"?>
<!-- Generator: Adobe Illustrator 18.1.1, SVG Export Plug-In . SVG Version: 6.00 Build 0)  -->

<svg
   xmlns:dc="http://purl.org/dc/elements/1.1/"
   xmlns:cc="http://creativecommons.org/ns#"
   xmlns:rdf="http://www.w3.org/1999/02/22-rdf-syntax-ns#"
   xmlns:svg="http://www.w3.org/2000/svg"
   xmlns="http://www.w3.org/2000/svg"
   xmlns:sodipodi="http://sodipodi.sourceforge.net/DTD/sodipodi-0.dtd"
   xmlns:inkscape="http://www.inkscape.org/namespaces/inkscape"
   width="200"
   height="200"
   enable-background="new 0 0 294.114 90"
   version="1.1"
   viewBox="0 0 199.99999 200"
   xml:space="preserve"
   id="svg104"
   sodipodi:docname="iihsAppLogoOpt.svg"
   inkscape:version="0.92.1 r15371"><sodipodi:namedview
     pagecolor="#ffffff"
     bordercolor="#666666"
     borderopacity="1"
     objecttolerance="10"
     gridtolerance="10"
     guidetolerance="10"
     inkscape:pageopacity="0"
     inkscape:pageshadow="2"
     inkscape:window-width="1920"
     inkscape:window-height="1137"
     id="namedview106"
     showgrid="false"
     inkscape:zoom="1.18"
     inkscape:cx="100"
     inkscape:cy="100"
     inkscape:window-x="-8"
     inkscape:window-y="-8"
     inkscape:window-maximized="1"
     inkscape:current-layer="svg104" /><metadata
     id="metadata2"><rdf:RDF><cc:Work
         rdf:about=""><dc:format>image/svg+xml</dc:format><dc:type
           rdf:resource="http://purl.org/dc/dcmitype/StillImage" /><dc:title /></cc:Work></rdf:RDF></metadata><defs
     id="defs12"><radialGradient
       id="radialGradient4565"
       cx="99.5"
       cy="101.5"
       r="93.014"
       gradientUnits="userSpaceOnUse"><stop
         offset="0"
         id="stop4" /><stop
         stop-opacity="0"
         offset="1"
         id="stop6" /></radialGradient><filter
       id="filter4592"
       x="-.048"
       y="-.048"
       width="1.096"
       height="1.096"
       color-interpolation-filters="sRGB"><feGaussianBlur
         stdDeviation="3.7"
         id="feGaussianBlur9" /></filter></defs><g
     id="g4628"><rect
       id="rect14"
       stroke-width="1.0278"
       stroke="url(#radialGradient4565)"
       filter="url(#filter4592)"
       fill-opacity=".14286"
       ry="20.556"
       height="185"
       width="185"
       y="9"
       x="7"
       transform="matrix(.97297 0 0 .97297 1.2432 2.2162)" /><rect
       id="rect16"
       stroke-width=".97297"
       fill="#fff"
       ry="19.459"
       height="175.14"
       width="175.14"
       y="10.973"
       x="12.919" /><g
       id="g102"
       transform="matrix(1.5203 0 0 1.5203 -92.275 -30.733)"><g
         id="g60"
         fill="#808285"
         transform="matrix(.9703 0 0 .9703 3.9168 2.1909)"><path
           id="path18"
           d="m71.198 100.8h1.253v10.165h-1.253z" /><path
           id="path20"
           d="m73.917 103.34h1.139v0.897h0.028c0.328-0.698 1.111-1.096 1.851-1.096 2.007 0 2.007 1.509 2.007 2.42v5.41h-1.196v-5.268c0-0.583-0.043-1.538-1.125-1.538-0.641 0-1.509 0.441-1.509 1.538v5.268h-1.196v-7.631z" /><path
           id="path22"
           d="m83.641 105.57c0-0.968-0.256-1.495-1.125-1.495-0.384 0-1.238 0.1-1.238 1.167 0 0.911 0.939 1.082 1.879 1.381 0.911 0.299 1.865 0.626 1.865 2.15 0 1.594-1.04 2.392-2.463 2.392-2.591 0-2.62-1.922-2.62-2.705h1.196c0 0.925 0.242 1.765 1.424 1.765 0.384 0 1.267-0.185 1.267-1.267 0-1.025-0.954-1.253-1.865-1.552-0.925-0.313-1.879-0.598-1.879-2.164 0-1.423 1.111-2.107 2.435-2.107 2.221 0 2.321 1.538 2.321 2.435z" /><path
           id="path24"
           d="m91.044 110.97h-1.139v-0.897h-0.028c-0.328 0.698-1.11 1.096-1.851 1.096-2.007 0-2.007-1.509-2.007-2.42v-5.41h1.196v5.268c0 0.583 0.042 1.538 1.125 1.538 0.641 0 1.509-0.441 1.509-1.538v-5.268h1.196v7.631z" /><path
           id="path26"
           d="m92.468 103.34h1.196v1.139h0.028c0.342-0.726 0.783-1.338 1.651-1.338 0.242 0 0.413 0.028 0.527 0.085v1.167c-0.114-0.014-0.256-0.057-0.641-0.057-0.598 0-1.566 0.555-1.566 1.808v4.826h-1.196v-7.63z" /><path
           id="path28"
           d="m96.354 105.64c0-1.723 0.74-2.506 2.562-2.506 2.32 0 2.32 1.395 2.32 2.192v4.257c0 0.327-0.014 0.612 0.37 0.612 0.157 0 0.228-0.029 0.285-0.071v0.854c-0.1 0.014-0.398 0.071-0.697 0.071-0.441 0-1.04 0-1.082-0.982h-0.029c-0.384 0.684-1.11 1.096-1.836 1.096-1.423 0-2.078-0.854-2.078-2.221 0-1.082 0.456-1.808 1.438-2.107l1.609-0.484c0.883-0.271 0.868-0.526 0.868-1.153 0-0.726-0.427-1.125-1.224-1.125-1.31 0-1.31 1.21-1.31 1.495v0.071h-1.196zm3.687 1.167c-0.47 0.47-1.495 0.541-2.036 0.897-0.385 0.242-0.584 0.541-0.584 1.21 0 0.783 0.271 1.31 1.082 1.31 0.797 0 1.538-0.655 1.538-1.452z" /><path
           id="path30"
           d="m102.72 103.34h1.139v0.897h0.028c0.328-0.698 1.111-1.096 1.851-1.096 2.007 0 2.007 1.509 2.007 2.42v5.41h-1.196v-5.268c0-0.583-0.043-1.538-1.125-1.538-0.641 0-1.509 0.441-1.509 1.538v5.268h-1.196v-7.631z" /><path
           id="path32"
           d="m112.8 105.66c0-0.74-0.299-1.581-1.21-1.581-0.74 0-1.495 0.37-1.495 3.161 0 0.982 0.014 2.99 1.452 2.99 1.025 0 1.252-1.082 1.252-1.908h1.196c0 1.196-0.598 2.847-2.506 2.847-1.879 0-2.648-1.281-2.648-3.915 0-1.894 0.37-4.114 2.719-4.114 2.093 0 2.435 1.651 2.435 2.52z" /><path
           id="path34"
           d="m116.09 107.3c0 1.182 0 2.933 1.466 2.933 1.139 0 1.295-1.182 1.295-1.765h1.196c0 0.811-0.47 2.705-2.562 2.705-1.879 0-2.648-1.281-2.648-3.915 0-1.894 0.37-4.114 2.719-4.114 2.334 0 2.548 2.021 2.548 3.673v0.484h-4.014zm2.762-0.94v-0.413c0-0.854-0.256-1.865-1.324-1.865-1.252 0-1.395 1.538-1.395 1.993v0.285z" /><path
           id="path36"
           d="m124.58 100.8h1.253v10.165h-1.253z" /><path
           id="path38"
           d="m127.3 103.34h1.139v0.897h0.028c0.328-0.698 1.111-1.096 1.851-1.096 2.007 0 2.007 1.509 2.007 2.42v5.41h-1.196v-5.268c0-0.583-0.043-1.538-1.125-1.538-0.641 0-1.509 0.441-1.509 1.538v5.268h-1.196v-7.631z" /><path
           id="path40"
           d="m137.03 105.57c0-0.968-0.256-1.495-1.125-1.495-0.384 0-1.238 0.1-1.238 1.167 0 0.911 0.939 1.082 1.879 1.381 0.911 0.299 1.865 0.626 1.865 2.15 0 1.594-1.04 2.392-2.463 2.392-2.591 0-2.62-1.922-2.62-2.705h1.196c0 0.925 0.242 1.765 1.424 1.765 0.384 0 1.267-0.185 1.267-1.267 0-1.025-0.954-1.253-1.865-1.552-0.925-0.313-1.879-0.598-1.879-2.164 0-1.423 1.111-2.107 2.435-2.107 2.221 0 2.321 1.538 2.321 2.435z" /><path
           id="path42"
           d="m139.76 101.12h1.196v2.221h1.324v0.94h-1.324v4.897c0 0.612 0.156 0.854 0.783 0.854 0.271 0 0.398-0.029 0.526-0.043v0.982c-0.156 0.042-0.47 0.085-0.968 0.085-1.253 0-1.538-0.513-1.538-1.509v-5.267h-1.11v-0.94h1.11v-2.22z" /><path
           id="path44"
           d="m143.02 100.8h1.195v1.367h-1.195zm0 2.535h1.195v7.631h-1.195z" /><path
           id="path46"
           d="m146.07 101.12h1.196v2.221h1.324v0.94h-1.324v4.897c0 0.612 0.156 0.854 0.783 0.854 0.271 0 0.398-0.029 0.526-0.043v0.982c-0.156 0.042-0.47 0.085-0.968 0.085-1.253 0-1.538-0.513-1.538-1.509v-5.267h-1.11v-0.94h1.11v-2.22z" /><path
           id="path48"
           d="m154.28 110.97h-1.139v-0.897h-0.029c-0.327 0.698-1.11 1.096-1.851 1.096-2.007 0-2.007-1.509-2.007-2.42v-5.41h1.195v5.268c0 0.583 0.043 1.538 1.125 1.538 0.641 0 1.509-0.441 1.509-1.538v-5.268h1.196v7.631z" /><path
           id="path50"
           d="m156.06 101.12h1.196v2.221h1.324v0.94h-1.324v4.897c0 0.612 0.156 0.854 0.783 0.854 0.271 0 0.398-0.029 0.526-0.043v0.982c-0.156 0.042-0.47 0.085-0.968 0.085-1.253 0-1.538-0.513-1.538-1.509v-5.267h-1.11v-0.94h1.11v-2.22z" /><path
           id="path52"
           d="m160.25 107.3c0 1.182 0 2.933 1.467 2.933 1.139 0 1.295-1.182 1.295-1.765h1.196c0 0.811-0.47 2.705-2.562 2.705-1.879 0-2.648-1.281-2.648-3.915 0-1.894 0.37-4.114 2.72-4.114 2.335 0 2.548 2.021 2.548 3.673v0.484h-4.016zm2.762-0.94v-0.413c0-0.854-0.256-1.865-1.323-1.865-1.253 0-1.396 1.538-1.396 1.993v0.285z" /><path
           id="path54"
           d="m169.06 104.28h-1.11v-0.94h1.11v-0.897c0-1.153 0.498-1.751 1.651-1.751h0.869v1.025h-0.556c-0.513 0-0.769 0.2-0.769 0.726v0.897h1.31v0.94h-1.31v6.691h-1.196v-6.691z" /><path
           id="path56"
           d="m174.63 103.14c2.207 0 2.748 1.865 2.748 4.015s-0.556 4.015-2.748 4.015c-2.206 0-2.747-1.865-2.747-4.015 0-2.149 0.541-4.015 2.747-4.015zm1.495 4.015c0-1.651-0.228-3.075-1.523-3.075-1.21 0-1.466 1.424-1.466 3.075s0.241 3.075 1.466 3.075c1.267 0 1.523-1.424 1.523-3.075z" /><path
           id="path58"
           d="m178.43 103.34h1.195v1.139h0.029c0.341-0.726 0.782-1.338 1.651-1.338 0.241 0 0.412 0.028 0.526 0.085v1.167c-0.114-0.014-0.256-0.057-0.641-0.057-0.598 0-1.566 0.555-1.566 1.808v4.826h-1.195v-7.63z" /></g><g
         id="g88"
         fill="#808285"
         transform="matrix(.9703 0 0 .9703 3.8028 -2.0703)"><path
           id="path62"
           d="m77.308 128.76h-1.253v-4.897h-3.488v4.897h-1.252v-10.165h1.252v4.157h3.488v-4.157h1.253z" /><path
           id="path64"
           d="m78.846 118.59h1.195v1.367h-1.195zm0 2.535h1.195v7.631h-1.195z" /><path
           id="path66"
           d="m86.562 128.27c0 2.278-1.067 3.104-2.591 3.104-0.47 0-2.321 0-2.506-1.908h1.195c0.058 0.697 0.599 0.968 1.225 0.968 1.538 0 1.48-1.182 1.48-1.708v-0.997h-0.028c-0.271 0.641-0.968 1.025-1.723 1.025-2.221 0-2.363-2.805-2.363-3.815 0-2.064 0.556-4.015 2.491-4.015 0.841 0 1.495 0.555 1.651 1.167h0.029v-0.968h1.139v7.147zm-4.057-3.332c0 1.239 0.186 2.791 1.381 2.791 1.31 0 1.552-1.225 1.552-2.791 0-1.48-0.242-2.99-1.537-2.99-1.097 0-1.396 1.168-1.396 2.99z" /><path
           id="path68"
           d="m87.986 118.59h1.195v3.403h0.029c0.312-0.626 1.152-1.068 1.836-1.068 1.979 0 1.965 1.509 1.965 2.42v5.41h-1.196v-5.268c0-0.583-0.042-1.538-1.124-1.538-0.641 0-1.51 0.441-1.51 1.538v5.268h-1.195z" /><path
           id="path70"
           d="m93.795 121.13h1.253l1.224 6.236h0.029l1.295-6.236h1.409l1.268 6.236h0.028l1.182-6.236h1.253l-1.809 7.631h-1.31l-1.338-6.235h-0.028l-1.281 6.235h-1.396z" /><path
           id="path72"
           d="m103.33 123.43c0-1.723 0.74-2.506 2.562-2.506 2.321 0 2.321 1.395 2.321 2.192v4.257c0 0.327-0.015 0.612 0.37 0.612 0.156 0 0.228-0.029 0.284-0.071v0.854c-0.1 0.014-0.398 0.071-0.697 0.071-0.441 0-1.039 0-1.082-0.982h-0.028c-0.385 0.684-1.11 1.096-1.837 1.096-1.424 0-2.078-0.854-2.078-2.221 0-1.082 0.455-1.808 1.438-2.107l1.608-0.484c0.883-0.271 0.869-0.526 0.869-1.153 0-0.726-0.428-1.125-1.225-1.125-1.31 0-1.31 1.21-1.31 1.495v0.071h-1.195zm3.687 1.167c-0.47 0.47-1.495 0.541-2.036 0.897-0.384 0.242-0.583 0.541-0.583 1.21 0 0.783 0.271 1.31 1.082 1.31 0.797 0 1.537-0.655 1.537-1.452z" /><path
           id="path74"
           d="m109.06 121.13h1.31l1.509 6.122h0.028l1.339-6.122h1.31l-2.207 8.144c-0.299 1.053-0.598 1.993-2.035 1.993-0.47 0-0.655-0.028-0.869-0.042v-0.939c0.171 0.028 0.399 0.042 0.698 0.042 0.555 0 0.783-0.327 0.939-0.74l0.228-0.669z" /><path
           id="path76"
           d="m122.97 121.23c0-1.067-0.385-1.808-1.58-1.808-1.068 0-1.681 0.57-1.681 1.652 0 2.861 4.798 1.153 4.798 4.869 0 2.349-1.723 3.018-3.16 3.018-2.378 0-3.075-1.224-3.075-3.388h1.253c0 1.139 0.085 2.363 1.907 2.363 0.997 0 1.766-0.712 1.766-1.794 0-2.875-4.798-1.21-4.798-4.94 0-0.939 0.398-2.805 2.976-2.805 1.95 0 2.805 0.954 2.848 2.833z" /><path
           id="path78"
           d="m125.4 123.43c0-1.723 0.74-2.506 2.562-2.506 2.321 0 2.321 1.395 2.321 2.192v4.257c0 0.327-0.015 0.612 0.37 0.612 0.156 0 0.228-0.029 0.284-0.071v0.854c-0.1 0.014-0.398 0.071-0.697 0.071-0.441 0-1.039 0-1.082-0.982h-0.028c-0.385 0.684-1.11 1.096-1.837 1.096-1.424 0-2.078-0.854-2.078-2.221 0-1.082 0.455-1.808 1.438-2.107l1.608-0.484c0.883-0.271 0.869-0.526 0.869-1.153 0-0.726-0.428-1.125-1.225-1.125-1.31 0-1.31 1.21-1.31 1.495v0.071h-1.195zm3.688 1.167c-0.47 0.47-1.495 0.541-2.036 0.897-0.384 0.242-0.583 0.541-0.583 1.21 0 0.783 0.271 1.31 1.082 1.31 0.797 0 1.537-0.655 1.537-1.452z" /><path
           id="path80"
           d="m132.12 122.07h-1.11v-0.94h1.11v-0.897c0-1.153 0.498-1.751 1.651-1.751h0.869v1.025h-0.556c-0.513 0-0.769 0.2-0.769 0.726v0.897h1.31v0.94h-1.31v6.691h-1.196v-6.691z" /><path
           id="path82"
           d="m136.02 125.09c0 1.182 0 2.933 1.467 2.933 1.139 0 1.295-1.182 1.295-1.765h1.196c0 0.811-0.47 2.705-2.562 2.705-1.879 0-2.648-1.281-2.648-3.915 0-1.894 0.37-4.114 2.72-4.114 2.335 0 2.548 2.021 2.548 3.673v0.484h-4.016zm2.762-0.94v-0.413c0-0.854-0.256-1.865-1.323-1.865-1.253 0-1.396 1.538-1.396 1.993v0.285z" /><path
           id="path84"
           d="m141.28 118.91h1.196v2.221h1.324v0.94h-1.324v4.897c0 0.612 0.156 0.854 0.783 0.854 0.271 0 0.398-0.029 0.526-0.043v0.982c-0.156 0.042-0.47 0.085-0.968 0.085-1.253 0-1.538-0.513-1.538-1.509v-5.267h-1.11v-0.94h1.11v-2.22z" /><path
           id="path86"
           d="m144.11 121.13h1.31l1.509 6.122h0.028l1.339-6.122h1.31l-2.207 8.144c-0.299 1.053-0.598 1.993-2.035 1.993-0.47 0-0.655-0.028-0.869-0.042v-0.939c0.171 0.028 0.399 0.042 0.698 0.042 0.555 0 0.783-0.327 0.939-0.74l0.228-0.669z" /></g><g
         id="g100"
         transform="matrix(1.1889 0 0 1.1889 73 44.068)"><rect
           id="rect90"
           fill="#ffcd33"
           height="42.949"
           width="7.91"
           y=".842"
           x="39.167" /><path
           id="path92"
           d="m78.742 13.234v-1.023c0-2.586-1.022-4.631-3.187-4.631-2.406 0-3.489 1.864-3.489 3.79 0 8.481 18.287 4.33 18.287 20.03 0 9.143-5.353 13.234-15.219 13.234-9.263 0-14.437-3.188-14.437-12.091v-1.504h10.828v1.022c0 3.67 1.504 4.993 3.669 4.993 2.346 0 3.61-1.804 3.61-4.151 0-8.481-17.565-4.27-17.565-19.49-1e-3 -8.721 4.631-13.413 14.075-13.413 9.805 0 13.896 4.031 13.896 13.234z" /><path
           id="path94"
           d="m47.077 0.842v15.76h-6.857v-15.76h-11.189v42.949h29.235v-42.949zm0 42.949h-6.857v-17.685h6.857z" /><path
           id="path96"
           d="m0 0.784h11.187v42.949h-11.187z" /><path
           id="path98"
           d="m14.414 0.784h11.187v42.949h-11.187z" /></g></g></g></svg>